<mxfile host="Electron" modified="2024-02-16T08:24:04.929Z" agent="Mozilla/5.0 (Windows NT 10.0; Win64; x64) AppleWebKit/537.36 (KHTML, like Gecko) draw.io/21.2.8 Chrome/112.0.5615.165 Electron/24.2.0 Safari/537.36" etag="MrC4NjdASHYCIuQKB3q9" version="21.2.8" type="device">
  <diagram name="Page-1" id="2XWkQP5S-hDbL94sL5Vg">
    <mxGraphModel dx="2058" dy="1180" grid="1" gridSize="10" guides="1" tooltips="1" connect="1" arrows="1" fold="1" page="1" pageScale="1" pageWidth="3300" pageHeight="4681" background="#999999" math="0" shadow="0">
      <root>
        <mxCell id="0" />
        <mxCell id="1" parent="0" />
        <mxCell id="APLwThIm-aDqV8bCMrbt-1" value="XmlHttpRequest" style="rounded=0;whiteSpace=wrap;html=1;fontSize=25;fillColor=#dae8fc;strokeColor=#6c8ebf;" parent="1" vertex="1">
          <mxGeometry x="1298" y="140" width="650" height="60" as="geometry" />
        </mxCell>
        <mxCell id="lXWczZfg5Y_O9BzzNMYT-1" value="" style="shape=image;verticalLabelPosition=bottom;labelBackgroundColor=default;verticalAlign=top;aspect=fixed;imageAspect=0;image=data:image/png,iVBORw0KGgoAAAANSUhEUgAAAo0AAAIMCAYAAACQQZYwAAAAAXNSR0IArs4c6QAAAARnQU1BAACxjwv8YQUAAAAJcEhZcwAADsMAAA7DAcdvqGQAANvKSURBVHhe7N0FgBTl3wfw7+Z1cg3XR3eLgDQSopjYImBgIKKvyl8Fu0BBwcAAE8EOFKRLBGmQvOOa67692Jz3mdnZ3bm93dsr4O74fWDupp+YmZ3fPRMr696jJwcex8HcY8ax4RpqTBf72C+7uVq5RpamCZXQturvQrgENXSZbBTa98ilIhN/twqXJLOtqoYuuibVTqMXbjvbRCiJ7YfAPFizjOZB8zjLdHPQaBcQ1o4XLSPE3+yX3SxO1G8uhxq5aBNSvEQubkFbX/1cLlrRlqGdqOWp+VlPHKJKqsslqZ1GJ9q6tmXLK6Z5xcJP2w+BrI7AkSfr1r2H5BRgFzDaty6a/4vsh1uKJuSokYu2vDqoy8Wvn6ZoXXV7KVANkctJzRMaqa3RNXTxF2xV7GKpBmp5dVS7FdH6Q+w19/NqzGsLGmsGjPati7ZBaSDJqzlUQx2TXGnCoo0nrYAGuCR5vSQaWdLLpIIun/2AEFIfttPuRdToRC9Jbi+6S1M9jVv4wiVpmyj0iQGiNDjkOZomBo2SgLFGUChMEodrBpW1hx1xOYNzjVy0CSk2weVSzstFK6rdVrYj0H57Ydg+5tu4S1LQy6Z2L7pG12yTNsnF354tsZzCVDEg5FmDQvMvy48a8/G/ZF27dbd9jtsFjNJAUqlSwcvLE2qVGmo3NRQKxQU9A0hzQhxoVdVz8TNLew8h5FIzn2ovtkuTaqO0oqxeCmIId2GwVRuNRmi1Wuh0elRWVsKg17Px5jQtQaT1p2W8NWisI2D08fGBn78fCosrUKXVoVpngF5vFGdoKDqdu2ZfR+aNZdPa6rAl5Lc17nctJ8/i5wUhl0xDjgZHu2tr/AQg5EJSKZVwd1PBw02NoAA/lJSUoryszBYgCr/EfuEHC2OFoNFJwMjf1xgUFMTGKJCdXwJdowNFKTp068dST44+/nitrR4vdX5b437XcvJMQSNpCRpyRDjaZVvjpwAhF4NapUR4UCCUChny8vLFsZbPfvPRxP+UOw4Y+d8cfH18WJ8CaVmFzRQw8ujsUz911RN99BFCSF34T0n6pCSkfnR6A9Ky82Awmq8umx+GtsWElp9yoY/HB4/iRP4332zJX5LmWxjJpWIfOPIbyLzxCKkLv+dYOtIG0UdBvUmriY4HQuqWXVAEfz8/IQaUxoSWI0lu/sVGCr9Zn9jj5e0l3MPouIWRn8nSkQuP6prUH50Y2zjpRwF9LDQY/TFFiHN8i2NBSSk8vTyFYUtMaAkczS2N4oD13YzsN/+UNP/Qi2NNPeTsl6fDmJALpSlHFh2ZpC1wFFvTfk2IY3zsx8eAlojRcqma/2+7p9E8TZiJ7+Vfq1OtNZjHOdTU04lleek6mrK+y4193RHSPCx7Vo29y/L5QC49+8Oetk298NVEVUWIa9VaPdzc3MzHixg48gN8n6xzl67CBWvzaKFX+B0THYMTSVnCWGd8fTyhUtpui6wvvcGIsvIqcciemEEiYV8nrfGscanz2Br3q8bl2X7v4DVkTY6WFzidQC4Z+w17GWyj5jiSpdXUGj8ZCLnQusdHIzUtlfXJrE9Q879Z0NhFclXa3MP/jomJxsmkbGHYmSWLXkV8Qrw45Jjly6/P5xRYA9aKskLM+79nIZcrzCNqocO4Jvv6cHRmaOl1dqnz1xr3qcbluSl7h6NlreqcSC4Z+417mWynphzRrfETlJCLqVt8FFJT0yQBo/mokVuPFEnAWF/+fj7o3qVjnV23zglCN27EFRg/0twFB7VrUDpE+hF3mZwRCCGkDk35JHR09qFP1svDywueQ/rZEzh/7rTDjp/Gz9PS7NmyAVcOHiQO1cZP+3vzenGouViuPttiQ1nnzl3Mvewn/9syoT4tjV9+thwdOsTjl12JkMk5c6fgOxMm9U5AWKgfNJoKYV4vLy/8+HeK0B/rU4k7pz8AhUIpDNv77+AuBAT4i0NAcXEJevQfJg5dOIMH9sdnH73brGn9d3A3Zj74mND/09ovsOCl1/HZ598Iw021e+sfWPXlanF95u226uPlwu97739E+N1cdm/9E7Fsn5BqH9dd7Ksvcx4vjUuZdmM1Ls+OTn71XVNdJ05+HcJ0Oru2PPYb+DLZRs1xVEurqjnWR1o2PigcN/k6ZOfmiWNqCmSxx85N6xHVqaHntwuLDwqXL12ER+b+H/bs+1cca1bXtMYytzRaLk+bjxL+d8NvSJRgq2IrUSClVIPU8nKkVZYhQ1uKTH0J9HoTC0BZJ/6zUKjr95LwG6bdw4KSnkK3/+BhnE/+TwjqWqt9+w+ysvRotoCxPvj6+u/g3+JQ7eGG4gNePlDkOz5YPZ98AjOn3ylOdaxmmhRttHbCkUxn1paHP7Tso5/LYDs1xyeKtJroE6rtUygUQsBYVlbmsEtNSxfmaWn4YJAPCvngUNrieCECxro0KWg0mkzC7+B2bpCpDSg1lCG/uhC5VeavoJHZfWi5B1TDM6hSHKq/e++fg42bt+G5Z55gQ3RYtwTPvfCqEDjee/ft4pj6ou3X2lHM2ILZH16XSeDYnJ8qlvXZd4RcavaB48UOGHlNChotn0encjORUpKNEkMxqlAOnUwjjOfEI41vkeR5+Wvg6W2e1lC79+xDQICfOGS+7Mu3PvIdf5mWN3P6HdZ+3u8/foNVHy8ThyDMy+OXfeWF/1mXl84jJZ2H7/j1W0jH8+lY8PM4Gs/jx/HMrW+7hXQt80rXzS9nGc/Pw8/bUHwaP639UrjMz7cI/vL91zWG+cvYfCshf9n59x/NrYZ898oLz5pXUA+//7FBeHM8j1/Osg6+49dtnwdLmueTT1q7hqR3+Wk5p6pasQdFjqSFacrRUp/dmQJH0hJIA8eLHTDymnh52qyKBYkqDz1U7noo3XRQsU7AjkRLwMjrEhyJBP84cahh/jtxSgxQOCEw5C9Z85d7+Y6/55EPtPhLv5Yghsffg9cxwZweH5QdOnxU6OeNvGqosCx/GXz82FHiWBt+fr4VzZIGP99LC+YLgRDPMp7v+HT48XzHz2O+tN4DR4+fqHFvppRlPD+ftMWOD1T59VnWHdQuUBjvDJ+eOcA0B2uWsvCXw2+YdrdQN/zl5Kk331lj2HLPI58Wn09+HH/5uSEth3walnLwLY+WS9eW9djngU/zs8+/Zv3dhO6GaXdh6pTJwvLEGf74sXQtB3+SFW5/puCx5ZHuKi1rt2nRaHduOEcPkjjqSNth9zWC4iHDnw0acPQIwSLrVG58Jwka2QeWdDUJAfFC13AcenTvgpLSUmGID3Tuvf9RoZ/3yhvvCON4KalpQuDFB318YMnjg7mpUybhl9//FIZ5Tzy9QPjNBzZ8UGMJBi2GXXmFcEncgp+PDzqnTL5aGJa2EloCJ34aPw8/L++5F14T1u0IP95Sht//+Msa7Pbu2b1GPvmy1cV8n6EtgJXmuT74+uIDPh4f0PHDru5TtODrTFo+/t5FPnDlA9m67N66ns13Ej+t/UocQ+qnZQaPDfmsIBdJy9tVLormKHJdu/NlWKV1ah/fpV4daT7SS9LSS9XNjj8QLB/w4gPSfH+TWhotzAGjOVhU87/V5qDR/CS2LTGdXo+qqmpx2J5lXsv8FuZhPuhLTEoW+h2xBJR8wMUHXvz8u/fsFZbhgzk+qGyOh1D4oIoPGPkWQEugJg2cCgqLxL7G49Nwzb6emg/fqlsfD953rzWvfMC4ZNmHrD7MLY3O8JfDt+/8m81nbmkkrd+F2xMJabgLHS9f6PUT4oz9PYz29zheDE0LGtmRo9VWYXBQPAYEdEQ/307o49UVvTy6C+PNs5gPLz5+NJlM1odnGoK/9CxtXbQEbhbPPTPPGlDygSE/L9/6x/d/9MnnwqVoS1BZX3zAKb1szbeq9evb2xp4WoJDvkXT0tLI50u6DN/iaZlWX/x6pZeI+bI1lvTyMc9+mMfXlaWVlb+/kG/xtLSU1oW/P5Ev65QbbXm1BJt8wG7hKE1LoPngfTOE3xdHW/qYb1llEXLDR46XoiPEiaYcJfXZtdrSJ8rlxGg0Cq/VcSYsNFSYp6Vx9tDLxQ4cmxQ08vFf186ReGDUWDwwYjzuGz4Rs4Zfi5lDr0OXzh3g6emFkJBgBLYLhEqtEoJGudzZocaPt3TmdxqeTz4uXP7lSd+dOGz0ZAzs31eYZpkuvVzNB4iW1j8+aOEDIb51qyH44ND8WhlzGnx++HsVeXwgygdM/Hg+wLOkxS/DXx62LMO3eEpbIevDUg7LOpy3XNbvI4sP0CwPoTgb/uyj94RxfFlmPjhHGO+I+f5J872T/L2ifKuiBX8rAP/QCz/NnjRNfjuY13PS5f2apC712/4X2iXPBQWO5AKhv0vapi++/lZ4D6Ojey/57t9dW4V5WhL+/YiLXn2xVsBoYQkcF7/2kjjmwpF16tyFHReceMla/M1+xMTE4OS5ul/uPffRB9C3Ty9xqDa5XC50fNQu/QaYY0f/w6IlyyB38nJv5y6/Q9jyQA4fKNdf/eqJv3fRvG5by+DFc6m2ZVvch2qWyVEgV99SOwsCnS3fMkJXxlVGWspmbzEVdvlojk1f12ZrKbsWadv4wPFifpNetzjx5d5s5xeuGLP0+Xd8NyloFF7ebeJf4N0w/AEoY8GkTNaYhs6LV2ktAf+6Hb4VT9qS6lr96ujyDBp5bW0fqlkeRye4+pbY0bI8Z8s7m/+iqysjLW1zt5hKu7w0ZTeozyZrabsZIU3hLGhs2it3WNDHtxbyXwfYkI5fpnEBI69tf+LyLYuWS9N8x1/avRABI2lLLs0x0baPxAuIDtFLoin7a302GR0P5HLQpJbGS0t6GEsP1/oc3m1Zayr/pcprW91HzOVydPJyVWJXJzxHy7eYk2R9MtISN3mLqcDLR3PsBnVttpa4mxHSGBekpfHS4g9dSydlP3w5aW0fWZfztroQGlefrXor1Dfz/Hz23aVGEcZF1xybva7N1hJ2K0IupFYcNNalpZwVLqbWegaij9nm1bD6bLW13xyHeEsoPAWOF11z7DquAseWsGsRciG00aDRgg5fQkgdWsLHAwWOl0RTN72rzUZnHtIWmYNGYe+33c/Y9j7DLofgkT6i6o/2hcayHEmXtAabO/FLWhgRBY5OCaclSdeStMQ8EdJchH2b/bDu46ynjbc02msJZ4cLqa2Xj9RfG90XLlSxKHBskRxVSXNW04Xe7PSJTNqayyxo5LX1w5gvH31UEZ55P2gTscjF2K1bwmFDgeNFZ9m17LuGqGuzNWZ9hLRUl2HQSAhpjMvixNcSCkmBY4vQnIEjjwJH0haY39Mo3MdY857G2JgYbNq0UZiJEEIIIYRcHsaNG4+U1FTzHzvCOxqFtzVSSyMhhBBCCHGNgkZCCCGEEOISBY2EEEIIIcQlChoJIYQQQohLFDQSQgghhBCXKGgkhBBCCCEuUdBICCGEEEJcYkGj+b2Mlh/mF5QKL2wU+gghhBBCyOVDiAbF93YL8aDYTy2NhBBCCCHEJQoaCSGEEEKIS7JOnTtztq8PZP+EtkhO/BrBTfzABWMycqhmnUwug1ohA/tfb0ajCdUmtpxSBlWr+FJPDon7zuOOf7UwCkNKXHNNB7wUqzBPbpEuRZ6blmba0SzcubMKlayfgwIjxkViSZeWXMeEEEJIyzJ23DikpqSKXyHIf3c6/4P9bLag0VCNt1efx2cFbAVs3XIfX7x/ZwhGuIvTRZpCDT7eVYgvT1chUcMHfvz8LPBTyBEU6I5R3QOxYJQvOirFBaw4ZKYUY8nfJfglRYvz1SboOBZoskgzJMgTE/sE4qkrfNDJTZxdwlRcjGlfFOKEUDa2JrkKd0yNxHPRjhpaTfh3ewZmHtLDyAejCg/Mn94ed/mKU+3WZcHXm0olR4CPG/rFeuOWPj64wk9u/t5GAQuG9qSh3+8V0PCDMjUenBGPDxNacmNv7TzPZnn+4ILmuWn1lHYgDX1/1KCYH5CpMP3ueKyioJEQQgipN2dBY7Oe/ctLtTiVz7o81hUbYbBFTIwJR/ako9uSNDyxT4OjpUZUGjnwMaOJ/dDqjTifW4G1J6pQaB+QVVfhrc8TkfBxNt5h05MrTdCa+ECNg8FgQlaOBp9tSEf3RSn4X6JBaKGS4rNRxueNzxfrTrP53/yjEP/qhMm1cFo9zljKUVZzbfbrsq6TzX88qwo7z5Rg6YZMXLkoEWM3VSDPriyEEEIIIa3RRWvmKjibi1vXlyNDGoOxqNXTTYEAN7n1EnONOJPhKivwf5+k4ukzemjFcc4YKirx+pepeOS0gYWoddNkFGDe31WoEIebndGArdsycA+LTPXiKEIIIYSQ1uriBI2cHn/8U4ozBnGYhYYd+0Rg//+6omxhFxS90AXlz3fCnmnBuDFMAevFRJMe3/12Hu9m2UJAmUqNSVdFYOOjCTg7Lx6bbgrC5ABJMQxafPxzNr4tFYedMuHvnTn4INtVeFm3oK7tkcjKkDu/I47OCMes9gpbpXJGbN1bjANOWjQJIYQQQlqLixM0Ggw4WSQJztw9MXesPwZ4Wx5+kcHNQ4UhfUKweloQBqiEuVCeUYTXTuhhjTXZcs/NiMO6iQEYF+GGjsHuGNs/FL89HIX/a28riqmsHIv2VrpuRayuxOt/FOM/awKNwPLv6a5AiK8avToG4qM7wnCtjziN0RVV4t/Shl2j1mkNSM6twt70KhzJ16PU/nq7Eya9ERkF1TjAljuYq0N6pamOFlcO5eU6HM+swv4cLTKq+DtaXbPMZdIbcC67CvuytDivdb2knpXpXG419rG8HWNlKtQ3/bo9ZzQiM78a+zOrkaQxwcjnrt6rrWf5+VsgTLbOKM5k5Ou6RI+Spuw7hBBCSCtycYJGmQxeYiAo0Fbj19Nax0EdC8LMl6iN2HWgVBLQyTFgaBieiVGI023kXl7430R/dLI18eHEiTIcdNjCp0D/7t7oKDZnFifnY95+rctL3/Wl8HXHQD9JtZpMKKrH9WmuuhpfrE/HwDdPwfvFM4hfmowhHyaj7ztnEfjiWYz6owznnAQoZbmlePrzJAS9eBpRb5/DQLbcgKWJiH7lDHr9qkGBOJ8Zh8zEfNyw5AzavZ6IXu8nY9C7SYh6+TRiP83Fj4V1t7zqWbC4a2c6OrF1J7yXjCuWJSHy5bMYvl4DSYOwiEN2SiHu/fAsAl5i8y89hytY3nqzMgWzMnb/Kg+/ukjPIaMB27ano+vLZxD5zjkMev8cOr52GglfFGBHuTiPUw0rf+K+dIQvZNuEdV4vJGFOkg47tqQi+iVW12+ew13H9I6DTUIIIaSNuThBo1KFvmHKGpdtN/6Rgr5f5+OPAr6FyAG9DjszJPcmqt1xay93eIqD9vw7+GJCoC2cNJRUYk+Ro9M5B6/wQDzRQ2W+DM7ysnlLDlbxT303B6MJedWSdcnlCJAGzE4YSjX48J9yHCgxwb4RzqTXY/vuTIz/uQxZNaZxSDuehSvez8RbZ7Qotq9IjgWs0ryw2jy6Jx2DPs/Dz3nGmumwedPOFWDaikx8nG+XAYnsY1m4fkM5zkkCco4Fcbt3ZWLGfp2tVZildXh3Ovp9moPP0/WosIsN+VbCkydZ8PZ+Kp5LqWdTKo8zYN3vqZj8VznOSFs4OQ6pp/Px3CEtqsRRtTW8/DITh2oDBy3rdKxwmf9l484tFTgvFtR5TRFCCCFti9x81hMvzYlnQP4SX/OeDBW4ekQQRnuIgzx2kk48kYdr3jmDzqty8U22URJwMNU6nNHYciH3ckMvX/s2Rgm1Gr3aSWJggxEZFY5LoVOocfeEUNwgvkaHq9Bg4R8lSGxA7FKDJRlWpiMH8vGt5PFv93ZeuNK/jnxLKJRK9OjSDoumRWPXw3HYN6s95ieoYH77EIfk4wX4RBI1VmcX4q6finFK0pLp5e+Bib0D8EA/H1wVooKf5NVFZan5uGeDBubbOGUIiw/C6gfjse9uVhcBYvtueTkWbChFuqOq43T480gVTCHeuGuAH8YESV4pxILvXQdLcUKsw5LkPNz5lwY5lmBRrkBCjC/uZctNCFdCLY42VVXhzR9y8Lvwfh3X8k7nYs5+SWCoUKBbgh9m9PXBID8W1BXqUS1Ostf08uux7WgFMtk0/t2iStbRy3wIIYS0RZbToC0m5C5SSyOjDg7Ed9NDMd7HLoBigda5swW4c1kiBv9WhmQxcjTqjCiVRJFKN2WNAKgWmQz+bpJ1s/UW12hlszDfm6bw98VbV/siXFwk70we/u+ItKWsfqrySvDINxm4dmUKerx5BgNZ9GN9zY5MhetGBFjv0awLp/DEq490xLF7wvBkH28M6+CBQfH+eOXGEEywNK/qtdiRrhdbZg1Yt6MIf1sjJDkGDIvGqSfj8OetEfjo5ijsmJuAjcPczEEnC3h+21WCY2KAqQ4OwBe3h+K2aHcM6hqEFdf6IUasi9zkUvxVYu63F9gxDLsficaXN3bApgc64B4x2OJVlmiRxEdzLK3vd5TgpKUy5Srcfks8TjwQiZVsufWPxmPdlW6wvFLTUFSGt4/pHLc4S7H1rttXjhRrIKrCtBvjcGhmB3x2SxT+eTQKc0Lt9i+LZik/h3IjS/PaOGS90BWaBXFYHF/7dglCCCGkLbpoQSMvICoI659IwM9j+Jdw251qOSMO/ZOJ0T+W4TwLuuTymt/0YjTwLwIXB5zgLyFayeQIcK/rdC5DTJ9QvNpVvGzOGfD7X7lYbX4rNP+jXioKKvDziTL8nliJE6UmW9ApV2LE2A74qJeqXpWsDvLEyEC58IDJyZQyrPo7H/N+zMDkNQWS90lyKNYYza/wqarGhjS99fK9Ktgfb47xRqS06YvVQWSoGv58f2U1/so0iH8tyBAV6YEAjRYncs1dukmJYEtwq9XiYIGjEI6Vqb8vuonBu8zbA1e3lySoN6KYr4DKKmzNti3vERGAJ7qrrK2LkCkxcnAABltHmHAyuQq5jmJ8KVaGbZL1uof544keamvwyd/b+tAAD3iJwzU0S/lliO0ThuVDPBDGdk43NxU6Su9fJYQQQtqw5jvjcfxXAor9DP8GcUcrl7upMXVsFE4/2xHbpvijn6c0QOPv0cvFy4lGyNQKtJO00BkrtGBxmXMGPc4US6JKpQIdvFwEf3I17pwYgone5kFTeRnm/1GCZP6bZsyjGkzB0u3SqR1WPBCPzaM9Uc8r0+C01fj852SEvnAG3T/OwIx1eVhyoIwFhlrkSZo/WUwpBIqmSh1SJDfv+Yd4oqvdt+9Imar1yLQ+7cMh6dB5DFqShB5LzV3/rwqw3xKcsm1ZqnMQwbEgNNRLulVlCPAQ3hNvZWKLGav0yJI8WeQb6IYOdq3EKi8VIiTf3lOpMcDVQ+Z8Gc7brTeyRisuy4+/CpKH162apfxsr+ib4IEgcYgQQgi5nDRf0MiimVzJ5WCFSgHvOiIvmUqFkVe2x77HojA3QpINox67z2lR6eGOoSGS8VVV+DHR+SXMqjwN1kseZlH6e2Ko5MEYZ1RB/nhnnDeCxVmzThXgwyxTvYPGoE7h+OeJBJyc1xHp/+uC0he64NS9Ybg/Sinei1gPnB5rf0rHrH+rIDy8q1Sidyc/PDo6FCtuCMG1fubZpEz8d29L4hq+ZbaujcnPr5O21LLyskUcdwq2LhcBXF3s74nl18n+18Rm4ANMCxaPuqwvvrW5SlIG/msb7a/8G/SS1l6JZik/y2SIqz9ECCGEkDaq2YLG4vMa7Ja87sQnQI1wS+RlNOBcqalGIGGh9PXCo4M8IY2LqvUcjHIVxnX3MF9aFRixaVs+fnTUHGXQ4qvNRThgfSBEhq5dfdHXevmzLjJ06heGhQnivWkmPXYlOnkdkCNKOaKC3NA1WI1IHwW8GtFEacgrxbunxHsVFWo8cGc8Dt3bAe+NC8L9Xd3gIQ12RAo3JQIkUVZpQTVSHL5iyEyYXxJhxQ6IRvZLXVH+ooNuYQJWWq5BNwJ//6m0lbi8VG8OhiV0FTpkSfLr56eGv4u9UaFWwE9Sv6XFOuTXWK8Jabl6lIlDUs1XfgoaCSGEXJ4aHTTuO1KMzYVGVBlNKODfE/hHCZKsJ3A5usV5wPpMAqfHd9+l4LpNZfivsuZLlDmtFr+drJac6GUI8VfCnQ/megfhlna2k7ShuATTP8nEG2e0wsuhDSzt7OwyPPdlGh49Zblfja3B2xtzB3s4vEzpkNINsyYHY7Sz9/lcYGUlWmRZmsdkcgR5yq0bJiu1HHsdRLAyHw+MD7NtPv5J6id2VNQMovjXyOTpwT+YLPN2x7Ag2/zpZ4vxV5kMnip5zU7OocIog1uj9wzG2wMTImzRnSajCG+fNti+TtFkwPq/i7HPGjQqMaCTu8vLvnJvN/Tys+0PmoxiLE+yfde4tqAUiw5Xw1HsfFHLTwghhLRBjT41lqYWYOLi0/BecAohSzPxSa4tWpH7eOOBHm41Lh1WVWnx+9YM9Hz1NMIWn8PQT1Jx1ftJiHwtGY+ftQV8cPPAzV3U5mU9vfHGje1qtBhWFZZh/udJCH7hFLxY2u3fy8CriXpboKBQY/rUcEyvx6VpKbfQQCwd5SVp2bx4PL1UtlY2QzVW/JGL5UdL8cmmDIz9vgRpdq10Arkbbh3mi1jrFjRhz9Y0dFrCgvPvsnD/2jRcsTgRY3ZWm19Bo3DDtIFeCBKrxVhahhkfJOP2jUX44ngZ1uwvxMu/Z2DAohQszHCUYAPI1bhpqC8SrC3NOnz6TRJ68fdq/piJ8cvO4eb9tu/k9gz3x5PdVK7b8FTuuKm7G/uDQmTU4v2vzmHQF+cxa00a+n2UjZ8dNTPyLmb5CSGEkDao0UEjZ+LMD2SwHzUuGCvVuPOaMNzqLPpiC+QVVmNPcgV2ZWpxXvrAgUKF6yaEY3aILXwIiA3BhruDcZXdvWR8+vw9atK0ZW7umH1rND7sXr8nlmuSocfgMPwvthHXl5vIPcQHU8NtOS5IK8KjazJx/9Yy5AT7YKSDexp5IV3D8MVIT9jeesOhpKASvx0uxidHNNhXZECl9SZQGWL7hmFJL9tTzIaKany7LRvTV2fgtp9ysGBPGQ6WmeDwGZAGatc5FJ+P8oQ1djcZcZp/KvxAKTbl2FodVb7eeP3mYAyTPBTjnByDhobiPulrdQwGHDpdgs+OanCyUoHxPWre6mBzcctPCCGEtDWNDhqVKrntFSo8mQwhEf5YOjMWn7ETc43QS6bEiD6+GOyvgLpm7CeQKRRIiA/Eigfi8MMVkpYkAVtvfAi2PB6LlUO90YUFj/aZVrmrMXxgOHY+EYcPJK9gseBYmmqlDG6sUyvkcHd2u5rKHY9MCcIolgY/L995sE6aHr8uFRunUrBOzl/edFAgZ9j8bmw5Yd1qOTwsT1uoPfDUTeGYGaGw1Rurz/bxwVhzoz/ilKyu+fRYp65RsQoMHxeNf+8MxjXBihqvKOIp3dToEiB5AbeCBfS3xGHTZH8M9Kldj3L+AZwuvhjqLVmRszyLlGycl5Avfh7pDqXA0DExOHB3CK4PU8D+DUsKlQpDBoRjyyNRmCMJmAV1penpjXdmROGFLmpI/45QuLlh2uQOeC5OAW/+dThsWX6b19jfGlF+juXFXSwfX/eKmn8iEUIIIZcNWadOnTn+LkP+iVf+h/kXh9jYGGzetEmYySE2T1m5HqmlRlSzoCbUT41Iz9onYns6rQFZZQYUVpugY3P7eCoR6efixd1SLN3iMj2yKozQsOWDvJSI8FGwwEKc7oTRZLuXUsYCMhYDOMW3Ylpf+cjmU7DAQbp66br44I7FJvXD8l7jVZL2+WDTS1idppSZ4MXqM85HLjxRbGLpGcXlhG8icZgehwqNHmlse5TL5GjnqUCojxKsahwT6lGHjHJWj5wcvmw7dGAbwd9+O7jIM7+vWPLG4+vKUfaqK/m8GVBskMGbpRXFEvKtI2911pOoukKHpBIjtCzYi22nQiDLu31+5GxZlqXaGlB+veVqNVsPv7669h1CCCGktRs7bhxSUlKF8y+P/833yjryQSM7MfInR+FcK/xmQWNMLDZvdh40yuafEPsIubxxr3cX+wghhJDWb+xYFjSmpkBoBuIDRjZOCBwbGzQSQgghhJC2x1nQ6OpqMiGEEEIIIRQ0EkIIIYQQ1yhoJIQQQgghLlHQSAghhBBCXKKgkRBCCCGEuERBIyGEEEIIcYmCRkIIIYQQ4hIFjYQQQgghxCUKGgkhhBBCiEsUNBJCCCGEEJdY0Ch8eaCV+asEhV5CCCGEEHI54r9hWuzl8f3U0kgIIYQQQlyioJEQQgghhLhEQSMhhBBCCHGJgkZCCCGEEOISBY2EEEIIIcQlChoJIYQQQohLFDQSQgghhBCXKGgkhBBCCCEutf2g0WDA3qMFeOqXLMz4JQevHaxAik6c5gRXUoIbl5/HjxpxhJS+Ao8sTsYb+eIwIYQQQshloE0Hjdr8Ytz0ThLuOqiHd7A7+vjLcOLfXCzJMIlzOCZzd8cNA3zQzU0cYYe+MIcQQgghlxs5J0RAnBgI8T/bSEikr8LCb/JQNiwW/80Ix4KhgZgzMhTfzI7D0jgWK5s4VOg5WMNH6bCbG67v54OOSmGKQF+tR0qJARUO4k2D1oCUYgPKjOIIQgghhJBWzBoXskDR0t+qWxoNOQex7ueNOFVcO9AtPVeE1QjAG4PdYN9gKJexIDArDwPez8cxMQg05ORj0LI8HOSHy4oxZcl5rNPyU0zYuzUFHd5MwYRVqei9shCn2fJmJhzelYa4RcmYtCqZ/U7D8rw2EnQTQgghhEi03qCxdBMeHToYU264GgMmLcJJgzhelJvPIr4wd8QozMPpSUVY+neh0H2aYjdzHXRZBXhgrxKLH++IM48n4MgkN+SV2qbN+EeBJY91wql5HbFzqAlLtpSjwDyZEEIIIaTNaL1BozYfOcXm68FVedkotosDZTIZTEbb5ecqjR6nWSC5/1ghvspxcI3ZiYzUChTH+GGSr7l50TvCG8N9hF6kp1SgyN2E1b9m4MavM/HcOROqCrTIocZGQgghhLQxrTdoDLkFy795CXffcj+WfrMAQ93F8aKIcHcoMzT4t9o83LlPKD6aGoqbA83DAhbcWcJHjpPc3yhhYIGnXCGD2GAp3PuoFWdkvZAHeOG+IYF4cHAAZg8NxddTfBFhnkwIIYQQ0ma04nsalWg/8Xl8sXYF5lwRII6z8YoJxLwgDR77pQSnJK/Y4QM9ntJDiYDKKhwu54c4nDpbgXQHLYThYe4wJZdhR4V5uCC5FJuEZYD27d2hyKyCJtQL4zp6Y1y8OyK8lQi03vNICCGEENI2tOoHYeqkcMOcO6Nwvy4fV756GmFvnEX4S2cxI1WJnn4yyAL9MDdBi3nvJaL70nN4OFeJWAfBnm9CMBYnVOKet8+i65JEjNwvQz8xRvWKDcayHlrMWnwGnd9NQsxryXgyhR6hJoQQQkjbI0vo2InjW9qsr97he9j/2NhYbN68SZiptdNrDTivMUHmpkSElxwqa3DIoaxMj0K5EtGeMlSxeM+DTeTfQ1RlAFRKGdh/QYVGh1xOiSgfOUx6E0wKOdzFkFtXpUdGJeDnq0SQbeWEEEIIIa3O2LHjkJySAhkLaWTsH98j9LfVoFE2/4TYd/Fxr3cX+wghhBBCWpfLLmgkhBBCCCEN5yxobLv3NBJCCCGEkGZDQSMhhBBCCHHJHDQKl6bZL/63cHXa/I8QQgghhFxezDGgEBDaokHWQy2NhBBCCCHEpTYdNHI6HTbsy8Pcn7Mw+88CrM5qhe9QLC3G2Dcz8Yv4zTZSXEkJblx+Hj9qxBEXA0vzpvcvcpqEEEIIueTabtBYqcHsZcmYl8ghMswd0Vw11qXoHX5VYMuix0+/p+PJ064DXJm7O24Y4INubuKIi4GleX1/H3RvVJr1LxshhBBCWpY2GzSWppVinTIQa24PxRNDAvHM5A5YPdRdeHF3pY6DgePjSj2Sy0wwiMtYmPRGpBfpkFUtubPTuhwHTbkOqRUm2zQeG19SpkNKuQl6yYQ612Viy1QYoZFEshwbl5mtRbbehHK2ItuqzOkms5mts7u54fp+PuioFIed5EFgzb+DcjvJj8O882myoDHBkiZj0BqQUmxAmV0syBmMyGTLZ4rLOy8bIYQQQlo683saWdAgnNTZb3M/J7ynccvmzea5WihDzkFs+KcQ8SPHoWuATBxrps/Ox+AVZRh+WzQWd1ZCJY7nL/eOWVGOhFgDtmWYYKw0wBAVgr/uCEQXhQlH/s7A1M3VUPrKUcWioPABHbBhsjeChOXKEBlpwL85HIpLDIgdFYNtI93hVqHBo59n4Q+dAuoqI7pOjMPPfeV1rKtIyEN0ex1+P6fEvAdjMT+E5Y3T4d1VqXgt3YAqlRJ+oe2w+SY5Hv5YTDeXpVusR8TwGOwc6wFPfj0fVeLRxzpgqtFRHiSRXV3l1tjnJxoTE+vIuyVNdxMO78rAdTu08PIE8nVueGFGFB5hZTl78Dym/FkBk68C+goF5tzfHorf7Mo2sx0619xshBBCCLnExowdixT+PY3WdzQKfa24pbF0Mx4dOhhTbrgaAyYtwkm75kJVeBB+utED279NRPSKHKzJlzTnaaqQExeJk/MScO7pKNxckI8FbAW6rALcs1OOlx/rhKTHOyLjyfbodjwLz58Tl63Qwtg7GiceT8DpO32Rva8Y/+iBtP8KsC4wDPsfj8fp/3XEtz0VrtdVpUVltxjkLIjF08HmUZCp8diMWDwXocJ118cjY5YYVGmqoesVjf/msnTv8kPRwRLsZelKOcpDLU7KLZDk53G9i7yL+DLO+EeBJWy+U/M6YudQE5ZsKUduXiHu/suIRx/shMTHEpDyVBSm+zopGyGEEEJahdYbNGrzkFNsvh5alZeNYvtrzCwmjukZgSP/i8fyqGo8vuwc7rPcS+fhiWldVBDa4VTumNJJgXO5BhZVV0AT748p/uZoRu7lhWkdZTiUId4L6eGBa2OUQrTtF+KBBM6AAha8hUd7o/3ZbEz4oRCbijm4KWVId7Uulu6kjirwoZ3cQfCklI709MTUWHO6vny6MKDILmh0lIdanJRbqDpJfjJTXeRdxJexyN2E1b9m4MavM/EcCyqrCrQ4nFSOvPhA3BFsXl6mVCBQLfQKapSNEEIIIa1C6w0aQ27B8m9ewt233I+l3yzAUHdxvB2ZWo0bJsZgz2QVftlSjDP8dXgWtHhIGuL4+/nk/DCbZjByNQIjvoLk7IcQ5shkLODhe/h+QCHGPuqwIOx4KhpP+lbg4XeTcNsxA3+Vv+51KeTwlVw9rpM0XUbSa+UoD7U4KbewPkl+XOZdZGLzyQO8cN+QQDw4OACzh4bi6ym+aMdic6N4ywMhhBBC2gZH8UcroUT7ic/ji7UrMOeKAHGcTX5KGbaUWQIXDloWQylVcvO9jZWV+C3VKEwzaTT45gxwZawa0VGe8EouwW8l5qVMFRVYkyTD0BhVjWDJXmmZHhp3d0wbH4mfR6twKLEa/o1cF08p51BpkIZsrjnKQ7k4zcpJue13gsh65r19e3coMqugCfXCuI7eGBfvjghvJXpEecDtXAl+FZfndHpkia8MakzZCCGEEHLpteKgsW5ceRnuXnQaga+dRdSrZ3DlbhnmTvJHHB/1eKlRuisZ8UuSELk4C6d6R2BBjBzuUcFYeaUJ85eeQUd+2jvZyBrcHguj6q6mwv8yEftKInq8m4QxLJ3pV3giuJHr4oPhoQlKbPo5BV0/LzS3jNaDozz4iNOsnJTbXn3rwSs2GMt6aDFr8Rl0ZunGvJaMJ1OM8IgOwedXmPDMkjNI4JdfdB7fV/BLNK5shBBCCLn0hKenbU9N87/M/bFxLf/paVdMBiNyyo3QqxQI81LAjQ8Y+aeIP6rAo4+2x1U6PTRqFSI9zU8FWRh1BqSXc/DyUSJELU4x8S1kgFolg3C7IKujSj0HFd96KWP9FQbk6GUIYsv4Si4B12tdtbDpGgOKlEp0UMNBumDpyqBi81WxaSo2QVlHHgR1ldtJfhzlnSsowBUrdXh1bgTGivcp6qr0yKgE/HyVCGLrsOBfxZNRycHXW4V21sfXJWVzlyRGCCGEkBaBf3o6OTkFwlPT4pPT/K1ybTZolM0/IfaRlop7vbvYRwghhJCW4rILGp0qLcbklZV44MH2uNZDHHc5aGK5tRl5GPpFMUrD/PHuLaGY5CtOIIQQQkibQkEjIYQQQghxyVnQ2GYfhCGEEEIIIc2HgkZCCCGEEOISBY2EEEIIIcSlths0Vlfh290FeGtnARb9XYzvUvWoEiehtAhj38zEL+ILpwkhhBBCSN3abtAoN2LLnmLsKNYjNacci1YnYeC6CpSKk/mHfgghhBBCSP207cvTnALDrwzH+zdGYdstfig7WY7jBnGaHZPeiPQiHbKqLV89aKOv1iOlxIBKEwed3oRq+hY8QgghhFxmWnXQaMg5iHU/b8SpYufthkb+FUIw4UyGFl7RnuisNI+3MeHI32mIey0Jo79Iw8A3z2DgHxoUiNP+2ZKCDm8m4+pVKei5IgOT3kvFEvNEQgghhJDLRusNGks34dGhgzHlhqsxYNIinHTUgshpsfiTswh54SxmFvrhw6t9ECxOstBlFeCenXK8/FgnJD3eERlPtke341l4/pwJejbtgX0KLJ7bCWfZtCMT1cixXN8mhBBCCLmMsKDR3Epn+ylenjWPaLm0+cgpNgq9VXnZKHYUNMrc8Nhdcdg/JwbvRFTg3g8ysLpMnCZKT6mAJt4fU/zN34Ms9/LCtI4yHMrQIy21AiXRfpjoZ57m094HI+ibUAghhBDSllljQNYjfvkLr/W2NIbcguXfvIS7b7kfS79ZgKHu4ng7Hh4qRAe6Y/SQEMzwrsL6THOgacFfvTYYOUhvU+QrRc5+8OMVKjmsV7RNHKprLk4IIYQQcllovUEjC+XaT3weX6xdgTlXBIjjajOwQM/EIsP8tFL8UaJC13Y1ixwZ5Qmv5BL8VmKOo00VFViTJMPQGBUiQt1hPFeGHRXCJOQnl2KzxtxPCCGEEHI5acVBo2syUzVe/uA0/BaeQuSXZeg4uT2eCDVfarZwjwrGyitNmL/0DDouSULkO9nIGtweC6Pk8O0YjMUJlbhz0Vl0XZKIkftl6OsvLkgIIYQQchmRJXTsyPGXaIUf4ITffG9cbCy2bNlsnqtV4qDVcWD/WSlZcKiSQ2WJF00cKg2Amo1QiuOMOgPSyzl4+SgRoq4ZWFaU65DLKRGlKMcty0sw5aFo3OsjTiSEEEIIaUPGjBmL5JQUyFg4JOODKNYj47u2GjTK5p8Q+y4M7vXuYh8hhBBCSNtx2QWNzaJcg4W/5mF1ph4aKNClczssmRSAPm7idEIIIYSQNoaCRkIIIYQQ4pKzoLFNPwhDCCGEEEKaBwWNhBBCCCHEJQoaCSGEEEKIS3LwtzKaf1h/tQnVVfh2dwGWJeodFMuEo8cKsfhgJQrEMfXC6bFtXyG+yDB/LQyn02HDvjzM/TkLs/8swOos29fF6DVV+H5XLmb/mIU5m4uxpUjynTNi3t63y5s+vxzv7i7FEZ04QqKutAghhBBCLiyuDbc0yo3YtrcAr28pxiH7+EpTjpfX52HxfzroxVH1IuNw5FAhtvLfClOpwexlyZiXyCEyzB3RXDXWpeiFryMsSMxB/8VpeD0TiI9wQ5CmFLPeS8Ith3UQssLytvXvfMz/KQdry/kRZgpTNVbtqUSxTBxhUUdahBBCCCEXQ5u+PM3J1YjXlWJ5kjRq5HDiUBFS/d3gJbayavUmVEsjMJMJGgPnoIXSpjStFOuUgVhzeyieGBKIZyZ3wOqh7pBXlmPeD6Xocn08DtwWiieHtMOCqTE4Nt0Pp/7IxqpS8/KczA3jO2ixcEM58s2jnHKaljjdoDUgpdiAMksxOQ6VOk74CsWSCiOKtHblM5rLZ+FqeQ1Fp4QQQshlr1UHjYacg1j380acKnYc3nFGGYZ0d8OOPWXIFMdBV4kPDgIjYpUw8MOcHh+tTMJNR4QhfgSO70zDkD8qIGkErMXTX42Q4nJ8lmio0VpZmFyKLd6BWNBTVaNyfWIC8VBYNdaeEedmWe4/LBTDU3Pw9Gn7ptCanKXFX2Y/vCsNcYuSMWlVMvudhuV5bMVlxZiyNB33f5uEjm+n4Z5PkjDtqKV8JuzemIKRW6tQXa/l07GsQdfwCSGEENIWtd6gsXQTHh06GFNuuBoDJi3CSUtMJMXinw7d2+HqoiKszDEHludPFGJLUABubScMAjI1bhzghpPHNDjPDxu1WHvMiAl9veArzOCYKjwIP93oge3fJiJ6RQ7W5Jub4/KLdFAGu6F9rZpVoGOwHAWlBnOwyvP0xquTPLF1XR42V7OkhXdl1uYsLV1WAWb8o8CSxzrh1LyO2DnUhCVbys33aVZpUdktBjkL4vDeIDccY+XLEhaqwuqTMtzQ2wPyei0fi6eD+RGEEEIIuZy13qBRm4+cYnMLXVVeNoodBY0M5+aJ2f3l+H5fBcpNWny+R4eRV/ggXJzO69A1AIPyS7CuBKjIKMEvCj/c08H+xkJ7MsT0jMCR/8VjeVQ1Hl92DvedNkIhl8Fo5GyBoYSOjVSr5NZK51+YGdo9FO9EVeCprRXQ8G/RdMhxWukpFShyN2H1rxm48etMPHfOhKoCLYT4WOWOSR1VLFQFYrv5o09uKf4sBUpSSrDVzx+3h8jqvTwrEiGEEEIuc603aAy5Bcu/eQl333I/ln6zAEPdxfF2jCage98AxJ4pxKrDhfhS7o858Qqw2M3G0xszOxnx06kq7Dhaicj+fujuqGY4DhV6wE1pi6JkajVumBiDPZNV+GVLMSrC3KBI12BftTiDhb4aW1I59IywXbY2r0WJ6ycGI+5YDt7KdNzSaGGfFovxIA/wwn1DAvHg4ADMHhqKr6f4IoKfWSGHr1JYDPD2xr2xevx4ugqbj1aj10BfxLDETSy5ei1PCCGEkMte6w0aWbDVfuLz+GLtCsy5IkAcVxvf8qfw88VjXY34cFslul3hj26s1DUb9eQY3tcL+ccLsSJViTu6q8WAzoa/cmwsq8SeCjX6BcuRn1KGLWWWh2U4aA0sRywS9Y1ph8eDNHj81xIkWpobjXqs25CNb70DMTe+dpXLfPywZLwKq3dpoHcQqDlLq317dygyq6AJ9cK4jt4YF++OCG8lAu0zDwVG9fFE2jEWNOd6YHpncyL1X54QQgghl7tWHDTWjzn+kWPEIB/4yL3waDfHzWfuHfxxs6EcxzoEYLKPONJCX4E5755BxDu5KBoYijv9WehWXoa7F51G4GtnEfXqGVy5W4a5k/wRp3TD3DsjMb0yHwNfOY0Ob55F8Cvn8FiBL9bcFYQe/PVeByL7hmNhgB6W52SknKXVIy4Yy3poMWvxGXR+NwkxryXjyRTHD9X4xPrjOl0l8jr7Y5TYKusVW//lCSGEEHJ5kyUkdOT4NizhGQxzn9AfFxuLLVs2m+dqlThodawgSjncxNDYYBIGzYwmVHAyeFkuNRurseD9TJRMicN7sfaxNIdKjQF5MiWivYSv7haYDEbklBuhVykQ5qWAm10Lna7agPMVJrh7qRDmblvOkjeOZcZdkhTHvwrHKIOnWibcSyhVV1q6Kj0yKgE/XyWCVGyCieVXuH9SBsmVdLYOE7QyOTzsVl7f5QkhhBDS9o0ZMxbJKSnCVVkhemE9Qn9bDRpl80+IfaSpuNe7i32EEEIIaesuu6Cx/vT4+MtUvFXphVdvCcc0uqGPEEIIIZcxZ0GjnI8VWZwo/LD2myNIfugyoML9d3dE0oMRFDASQgghhPAxIB8Lmv+bsZ42/yAMIYQQQghpOgoaCSGEEEKISxQ0EkIIIYQQlyhoJIQQQgghLlHQSAghhBBCXKKgkRBCCCGEuERBIyGEEEIIcYmCRkIIIYQQ4hIFjYQQQgghxCUKGgkhhBBCiEtC0Ch8RYz4w/p1MYQQQggh5LJl+wpBc3xILY2EEEIIIcQlChoJIYQQQohLFDQSQgghhBCXKGhs0egOU0IIIYS0DE0MGiuRtPlLfL+/xDzInce2FW/ji33F5kFNIjZ89ALmPnAfZj/5OlYfNo/n6fMO4vu3n8bsWfdhzgsfY0typTiFKT2Ib5cswvub0muETfozv+HdJd/hiKYUh3/5BluSKsQpdsTl33rrLSx65318tfEUig3itMyPMDbmDvwiZrlZZK5o3DrrykvVdjzScTDeOG0SRxBCCCGEXDpNChpTP7kBE17YD52b0jxCVo0jXyzD1jwZULQBs/tdgXkbKxDZqzeiuaNYtzMDfAhUsPEx9E+4Gq/vlyG+Tw8E5X6HWX264ZavUmDk16MowNalL2L+fU9gbTY/wkxhOIpVy7ajWK6EuuofPDfxdnx5XpwoxZbf8t6n2JGaidQT2/HJQ0PRdeJSnNCZJ7ek9ru68sJxFDASQgghpGVoQtBYieRj+eh5/3zc0ctbHGdT+vdqrPN4FGu+W4QnHn4Ez7y9Bqsf6wV50e+Yd+/36PLxURxY8waefOQxLPhwM479eTNOzZuNVRnmMIpTdMH4AaexcP4vyBfGSHmh+23zMTMuBYdSteI4OyZfDJ+zFO9/9j12HvgKE04tx6f7q8WJEpweZVnJOJdZhCohYrXhqouRmZyMzBJtjeDOUJ6NlJRslOnFEVYGaLKTkZxbKQTHUqaqAqSzdWWV6usMFPWl55GSlocKS8uoRK10TTpUVlTDYNSiJL8AGgfLEEIIIYQ0hyZenpZBJhN77XhGJSAk9Sd8tikb0tiqcNs32BL6EBbc3L5G4j7DHsVDvY5i7foM8wijDP3nvY7hu+bh6T+KzONqcJKwhMySOXc/+Kn10OrswjXNNjzRLxo9R92AG0Z2Q/xVL+If4Yq3Dmc/vw1dOnTFqKnXYljX8ViSyC9bgcNvT0Bc3BWYNHEw+z0Jy0+KzZfyIvz6wGAMHj8Jw+LDMWjhPhZW8ypxZOlkxEX0wOgpEzEwJgID521EgTBNqhx7Xx6ODjGDMWHSVeg9/h2cVlhqyEm6WSsxpccNuH9aL3TsfC2WnaWWSUIIIYRcGE0IGvWoqjBAqRYvTdtR9X4GP306BNtvjUf0VY9jzWk+GuOQn5wCZZfuaK8wz2fTjgU+vijIzIe1wSxwAl5dPBRb5z6LzaUsjjRKmwIVcHMzoaqqVnOfla4sF5mpR/HLwqfxjWwybujvIU4RmQJx3coTSDlzBEdPrscszedYtUcD48kluPt/hXh0dxoSj/2HlJSfMD1CBt3htzBjeTssOZ6CU6fPYefccix58TdzAJh7DLpp6/Hf8dM4/cttKPr8c+xlUaPu0Ou4Z7E7Xj6agaQTZ5CR+Cm6fX8/nt9SLmTBQnd4ER74IBiL/0vDmROnceTtLsjLNAeBdaZbfByVUzchp2g3nu7SxL8BCCGEEEKcaHSUcfy92zA/cSxmjQ0Rx9hTI+bmFThy/giWDzmMx/v3xn3rCqBQKmDU6WyBoZUROq0Jak93a6ZkrC/0+sV4Z8g2PPXyDmjk0uyG4uoHxuDIYzdj+Qm768o843G8NaEn+g2ZipfOjsYX297FWF9xmoVvN8SVrsH/pk/BiCF3YGVqNSoq9Ejb8ifyRj2EO7q4CbPJ3Nsh0AtI37kFRf6lWP3wzbjxxlvx3FYNqhJPIYeP7doNxdQRIUL7p2/X/khAIYqq2TK7tkMzejqmRKmEdcmDRmHaeCUO7U+vcQk7Y9c2FA+/DZPEaNq770QMDxN6607Xow8mjYtiIbQcNaqHEEIIIaQZsTBDvIdQ8sP8r25d734eU3Xr8ftxyRPMJi0qqgA3d1vro8y7E254cyv2vB2LX15aiYqevaD4Zz322T8xXPUftuzWomffKFvQKFxeDsX1by5E3NpH8dZ+8VKwQINjf2yH563P4uaEWs2WgKInntmZhbzsFBz6+WVMFoM2qYJfZ2LE7N2IvONlfP7Xz5g/gG+J5GDQ62E0mezqgIPJaII8eizue3g2HnzwQcye+xa+fu8WRPCTZUqweNhMxgI4oYfVI1uPgQXJ0gBRzk+XyyQX2Pk0DZCr1Sz4Exm00AqRtYt01T7wNce2hBBCCCFNxsc/5hjI1sdrdNuU0r83Rg7ywPmMUjbEgiO2TuP5PdiTl4B+nb2Rv/NnbDlveYDEAK3WCKWHJ3yvmoPHO23A4498hcRqMSP681j39EP4NnQO5o7yMY+TkIXfiiWvxmH12xugV4sjUYbUcxx6jx6IUCdBk1Lp+NK5mRHnj5+CetQM3DOuD6K1B7D1uIaNlyNy8BVw2/oFfk0zt4dymvPIKpWhff8BUOzfB0330Rg3bhzGje6NiNAgBDqtRRkihwyD17Yv8Vu6eV2mgu1Ys0mBocNjJUGjDOE9e8C07QfsKODDSw4F29diU455WsPTJYQQQghpXs0TdlRuxZxeEYjo9hSK7nsFd0axsCfnO9ydEIDA8GhEhYXjyndUmLv4XsSpu2HuTz9geuFCDAwJRofoDggO7oHHzt6INb88gR6WoNAWUTEs+LpzKRbGpuNMdY0JzrmcTYEuU25E4Oqp6Ny1KzpO+BHyTvxT4Bw8hr6Azx8uxTM9wpHQvSsi4+/A9wUcvEY8j2U3nsKsjhHo3KsHYsIH4MkdZebVOeF+xXNYOacc89m6OnbvgsjODyNr9hdYOKTm/ZW+Yxdi8dh9uKdTHLp274SRnyjQL9q8eRqTLiGEEEJIc5LFJyRwfCuh+INvMxT64+LisHXLFnE2R/T497kReC54JdY/1hHa3AzkycMQHexujddM2hLkZBVC7xmEsGA/uNUIUTnoSrJxvlAL96D2CPNTS+I8I7QV1eDcveAuufLM6Sqh0Svg6eUGhekM3hp2Byo+2ocXe9lfnhaXd2PL2zc2GrWorAbUnm5QsgRN1UXIyq2GT3g4vIwV0Cu94SFeyTaU5yCjQA/fsPZo52HJPMt3cSYyigC/8AgEebK0hXVywv2Y/DqFV+FUmaBiwyqxUEZNLtJzq+AVFokQLzG/dnlhC6IiNxW5pmBEhXvBVFkFk9pShnqkSwghhBDSRKPHjEFycorwhhz+VkHhhjr+d+ODRkB3cgWmXfMm/N49hM+n+ItjL4Yi/HzPEDyvfxa/fHU3HN3SSAghhBBCGu6CBI2EEEIIIaRtcRY00qMUhBBCCCHEJQoaCSGEEEKISxQ0EkIIIYQQlyhoJIQQQgghLlHQSAghhBBCXKKgkRBCCCGEuCQHx37yr9vhf1l/SH4TQgghhJDLhyUg5P+bfwnD1NJICCGEEEJcoqCREEIIIYS4REEjIYQQQghxiYJGQgghhBDiEgWNhBBCCCHEJQoaCSGEEEKISxQ0EkIIIYQQlyhoJIQQQgghLlHQSAghhBBCXKKgkRBCCCGEuCQ3fzUMz/IlMdZeQgghhBBymaoRI7L/1NJICCGEEEJcoqCREEIIIYS4REEjIYQQQghxiYJGQgghhBDiEgWNhBBCCCHEJQoaCSGEEEKISxQ0EkIIIYQQlyhorC+TATqdASZxkLQQtF0IIYSQi4KCxjoZkLfnQ8we0wWhvl7w8vKCT2AX3LU2sxHvPzciccWtGNS/P/qzrl+/CViws1ScRhqmObfLZarqHH579T7cdP2teOz93cgxiONJPXBI+3YWhvfvZz6W+4/E438UmieR1oWOA0IaRBYXn8CBY//5f/wLv80/EBcXh61bt4izOWZK/RTTrnkbJ0wycUxtHKdAuwlv4Nclk9FOHNc66JD0+R0Yfd8PyKjxQRKIyauO4PfpkXBeakdY0LhsDPrN2QENPyiPw+y/DuODsb7C1EumYi9evel+fJPKCskXiH/je9x0fPXjU+jrbp7FnrPtznEyqDy8ERDeCf2umohb7piKKzp41qgn6bIcJ0e7US/juw+uR4Q43bXm3i6XIw12P3Mlxr15HNXCcDuM/2gv/nwgAQphmNSNBY2fTULfWRtQzA/KIjH99yNYNTlQmEpaCzoOCHFm9OgxSE5JZn0yyGR8J/Q1raVRBhPKMk/j1KlTTrvTp08graj1XTw0ZX6Pp+f/KAlMlPAOj0V0mB/c2lD7bPnB7/DNluM4dVrcZuz3ia1r8fPxSnGO2pxt99OnT+L44X+x88+vsfSZO3BlXALGLtiKPMnmly7L7xtnsirEKfXTarYLp0PxuT34ftlS/HauRnR78TjNgw6luSXsp0UFivI0uES5JC3Nhd53W8KxIaDjgJCGsp1mJdf1zL2SEU1ijlJbm/w9v+DvHEsduKPX3A1IyUxGanYivrujAytVW1CMf779HYl6cdCi+j/8/MMR9hHaRPpsbH1lGu755Czsk2islr9dNNj12jXoFe6P4IShuGX+T0g2XOxcucpDIEY9/gyuT/CCXKaEf++78NTdPeEmTiWXqwu977aEY0OKjgNC6sJfeLYS+5u1bSZo3BtYv2c3du+Wdjux9skB8BHnaR2MKM3OswVN8ggMvWYggoTaUkChuPShSbMo3INv/0w2/2Utj8GYCV3FD0wdzvz2PQ6UCwMuBU1ZhcSSQuRmnsPRje9jVv8A247FFWDr+ytxoMkRKK91bBdTbiJO5lax3F46rvLg2esh/HC2BBUaDfIPf4ybo+mCHLnw+25LODak6DggpGGaNWiEZwf0GjIUQ4fW7Ib0CIOan84ZYTAYrJ1RjFyNlQXISDuPEq00rOUZUJ6diOP792H/sdPIKNbVo/2zMctImPg86qDTmWzLsb9CVWy9OiHfRrv1maAry0HyiYPYu3c/jpzORKmuQSmacSYYJXXDd6Zaq2li2ezk7lyNTRnitWO/Lhg1tjv729tMn/QHvv+3ng/qyJXw9AtESPs49Br3ED76YSmuDbMFcLqUf/BvZhNPEw3eLjwO+rJsnDtxCPv2HsCxM+korKojHw3eP+3wedRXQSu9viXjoNNWQ8+v07LCGhq4TTk9NAUZOHvsAP49eBxn0/NRYZAsUd888POxqlCq2UnSaLevsX1RWg+WaZy2GGlsP//30AmkFmld7nucrgQZp49g/4GjSMqrEp5w54TtaFm30cE+7koDjrfmKoe+FJlnjprLkVvJAh62Dzb2jhtXeWLbNDnfXFe1NHj/bMD+36h9tznXb4JJUjZn+wZnkszDlhFmaUqdttrjgJBLhH8QJi4unouNjeNiWBcdE8tFRcdwo0aN4lwxpazgxvsJx4zQBV33NXdenFabkTv7/jguyE3Nubm5cWqPTtxDfyVx218Yw7V3Y58eCOSu+TyDMwnzarmMv17hru/mz6lktvVD7slFj/k/7ofESmGumhqzjD09d+KdkVw7tZpTKfg8WdYj4+RKFadm470TZnK/5LOyFx/mPv+/qdyAKN+a6bFO7hnJjZz3A5dUJa5WYODOvjeC87bMJ4/jZm8qFadVcyfem8CFuquFNNRqLy5qzEJuW6E4uVnKZsd0nlt9YyjHQjthXb4j3+VOJn/BXRdsWb+Ci7t/A1ckzi5Ve7t/VXO7a49yrw70sE6HW19uwUFzZbhc1qH6bxczHZe1fQk3fUgHzkthS4vvZKoArtvUBdwvSfZ11pD905Fq7uArgzlflh/7PCpU/DZ149qNWMwd14mzN3SbGvK5vSse5sYm+HLs9FZz/T69uMe3lLCZ6psHVtYP2f7GysrXnZtPd+6xTfzyPDbtg6u5EHc3az08+EcSd/Cju7iefkrbOhX+XM97v+TOVouLSemyuC2vXct19FZI5vfhut72Drd20VQuwsNcx25e8dy9P+eJC9Wt4cdb85Rj6+tTuc4+knLI3LmYa17kPn/5ai7AOi6Sm77OerDWwVGeErl9y27luvpK0pB7cFHjnuc2ZOrF5XgN2T8buv83dN+9AOsfPpd7fHQ45yEMszL6DuCe+0cjLi+qPsS9cqU/5yZ8Rnpy7Sct507y+3JT6rSVHQeEXCyjRo0WYkE+JuRjQz5G5GPFZg4aWQDg9Kxq5BLtgqZr75/AdZBblg/kJgsfehXckXcnceFKy/janSJsCrfitFZcL68xyzjCgpM3h3CeDpa3dLL2dwrBie7469xgT8fzmDsVF3f3D9x5o7jqOoJG7ZkPuQlBkg9T/xHcW4crhGnNV7aajGmruGvaWdbhw131zilOb0zlVk5uZ12vPHoG94eDc6HLwK98B/dYJ8kHpfdwbslpgzCp0UFjPbcLx2m4Q+9M4MLqqC++kwdcwT27XRoS13f/dKaaO/B8b05tWd5B53HFG+KJt6HbtIjb9n99OS8H8wmdPJ6bvZnfl+qbB3ZCfFda1ljuQesfMLXrYcqMcVyEXXBg7ry5K145yNUIb41Z3G8PdOXca83LdyouqlMc52EdDudu/8ka6dep4cdbE8thyuZ+f7CbJK/STsl1SIi2lbEBQWPNPMVyE28fzgXbBcGWzrPPU9wOSwxT7/2zMft/Q/bdC7X+17jfl4zi/KzjPLj+Cw/U2Cba429wQ7ws0/25cR8msU/VptVpazsOCLlYnAWNzXp5Wp/6IxY8cD/uv1/S3fcEPv9PK84hYTqPbd9uRaaJ/b2pUEKpUIC/Ja1s14u455k/kS1cxlAibPQzWL37EPb99gZuiDXfcWfMWYcFz6xFuni9oTHLOKMM6YYhw4djWLcQ22sXZL6IHTAMw9n4Ef2jwQ52gcItGD2umYNFX/+JXf8ewL4tX2L+2PYsBzw9kr9/HZ8cNr/MwRH+NUcwnMPXT76Avwr4zw9G0R43Ll2JuX1YiMQ0Z9lsjEjdsAZ/W14t590b114dD6U8EiOvG4AAcbQpfRPW7M4Xh1wQsw9TOY6sfB3fJtouU7knjMCVkU27V6i+26Vk27O4c/4G2/vWFH5IGHYj7p15Gyb0CTXfJsGYivfizRlP4Pc8cYQ9J/tnXdQRPXHlkCHoH+MjjmGUgeg48ErzrRo9wqBioxq6TU3suHrz08PivZwyBAx+FCs37cOBf7bgl1WvYsaYOPiKG6C+eag3UzJ+X7kN2m4TcfesOzG+s5/kYSMNDn67Bocl96vmr5uPRz89Jb7ChGFpdxk9DffefS0GRMiRfjYZVeKkhmrS8dbAcuT9Ph9zPj1py6sqCN3G3oYZd12HQR0UyExKs5WxsUwpWL96F8ojBuCaO2fijsl9EGbZQZnKIx9h4eenHT9E5mT/bOz+X9/95sKtPwIJU2didKhlq1Th1IaNOGs9dehxbtMfOG7ZRkFX4a7JcbVfjdOUOq1LCzoOCLmkmrOl0WHnPpB75SjfYmL3l5swLZ6btnwvl12h5apL07mzaae4r64LsV4yVXd5mGPBlFX+7/dyMZa/rP2v5j5OMbJMpDd8GZf03Km3h9ladhSduDnby8VpZtqzu7ht5zS1Wp5qtuD5cqOWJbK/hnm1Wxof2JjDJX42lQu3/lXsxnV54A8u17LSC1I2RneKWzrCV0wTnNeQN7hjYqOWIfF9box1m8q4iGnfc9l2hbTf7l4dR3HX33A9N2XcEK57Bx+OncSt0yBvz037NoNtfcfL1q+l0cLFdjGmcB9f7W9LWxHF3b46hbO2wRrzuI1zenAsLBPn8eFGvHtG3D712D/Ta+4DjpVzO+Z0sl1C9hrOvX3Kel2vUdu0Ys//cd2sLTse3MAXa7bAsJVyphrbyEUeGtLCwrqAMUu5/yyX34o2crM7SS7P+Y3lPjwnbl1W/59ODLRNk0dy0748x1kWNeT8wc3uorZNb0ALS8OPt6aUI5X7bJKkHGw/mvZlkrUcxry/uDk93GzTG9vSyDqPPk9wW/ItR4eBO//jXVy0tfUQnPdVS7jTwhXVeuyfqSeasP/zXOw3TTq+eK72ywJu3b0xtuk+V3HvnBIvJxsSuffH+InrlXHh7HMpR5jQtDptbccBIRfLRWlpbBgFYm9/F8sfHowwTzXcfCPR0fMs/jqQLxxJ7E8zRA0ajIC8EzhxwtylG4MQbGnmKzuDg4nlQOHhhi/jkvlFllJyuxHqjsMwMs4LpspcnNz5M1YtfRHzZt2Cybcvwr/C27t51SjOK3X6V2356W/w3MLfkG3OPHwGP42Vb01CiCWpC1I2QHfmN3x3oEwc8kT3yRPQSfxrXBEzBlP6WF44ziFr6zfYkiVm0ImKxG34+aef8fumf3AisxyWRggogjHihbX4aFqHZnriysV2KTyErcdKxAEWXvWdiSeuj7G2fkAejJEP3ovB7ExgVo6T2w8g12HxHOyfkdYF68DyUyuPktI3Ypu6hyWgvTXpKux/aTwG3TAfK7efQ5nQoGtfLy7y0CCszmbegu7mBlAgYAAmXxluW72+AuXVYhN38THsOCa87lrg1vNOzL0hzvoKE0XoeMy5bxBY0N9gTT/eGlCOoiPYdtRWDvded+OJm+Kt5ZAHj8ZDMxpXjpqCMHbuHIw0P/7PKBAx/j5c39HcdsqrSD6CRMuhWoOjz8/TTdz/Xew3TT6+XKwf7XDVjJvQxbLC8mP4c1uq8KS1KWM71h0WH8yTR2HCXaMQah6y05Q6rUvLOA4IudQaeyZxyG/gLLy8eDEWS7s3ZmNogN0nhSAQfcf2Z4e4jakkDZlllk8YA5K+vBuDuvVAjx7mrv/URdhvuQRgqkZpua5RyzQHruw4Pn9gIEL9wtF9xA2Y8fgLWPLZ99jw90nkWS+pcNBr9Y6f2pPpkPT1EvzAX1/itRuP11f9D0MkXxBzYcpWheM/fm+7lCLzQNXuV3D3tGmYxnd3PI/NZe62HSN/N9ZsynBcBodkULgHocvVc7Bi13Fsfn4o/B1t/gvAWJyBLEnc7BvXDR3cxQGRKigGEZLYrzIvG6UOH/isvX82h8ZsU3ns9Zg7rbPt/XHGIvz38xuYOaojwmJGYO7as3D+KvYmkvsgNFh6enNDYLAPOxWLOCOM4qOfpuJ0SdlY/cf3QkyNM6MS7aLbN+r1W00+3hpSjtJMnK9Rjh6ItATyAiUCoiKa/hoxZTskxLWr+SHsHoLoUNtOy2nLUO7g7h5H+2fz7v+1Xej183wG3o27+lu2UwkO/b4DGWy7nN/xG/YXmccqE6bgzmFOvl+sSXVahxZyHBByqTVr0KiKGIEZTzyBJ6TdY/diZKSDu6jYQRhibVIxM+m00Ek/YGQyyOVyx51KBTlnatQyTWbKxNr7J2HWxwdQyL/uxC0Uva++A48+twgrPnkF10bWo1o5NUK6xCPQElAV7sDy5dthubWRd0HKVnEEP/x03HY/DVeI4xt+wHfffSd237O/6PMkJ94C7Fm7EWl1rDpownv458wpnDx9DunZBSgty8OpDe/i/iGh7OPx4uFY+SXVJ9RLrXiV32ckM8mUKigdBbUO9s/m0LhtGoxJbN/Y8OY09G4nPZY4VGXuxLu3X4VbP01s+H1ajVK7tdfCpKtEtbVsMqg8PWvdP6mvqra1RNdXcxxvtTgvh7FKA9ubY1g53D3sysHB0Jhy2JOp4O5ml3djBUrKbFtSpvKEh4OPT0f7Z7Pu/w5c6PUL3Lrh5hnDra/+Ktr/O3ZkZGD3b/vYJxFPja7X34bBfsJAbU2p0wa5BMcBIS1AswaN/AHSMDXnV/gEIcD6B6EcsTPXIbtCg/Ly8tpdyWmsvC60Ucs0leHUN3j390zzC2pVnfDAT8dwaMPXeO/lJ3H/tV3goa9fYBp6/Ut4fqzl41GL0x/PxpM/Z1kDtgtRtvKD3+O3Uw37M7to71qsT5ZGOnbcAhDVqQu6do5DZFggvFQN3Q+ah9InBO0k59Hy86ksyBAHRLq8FNi+uVAGv/ZR8Lc2F9hrjnJw7CRqO4s2epsqwzDyqTU4fD4LJ9Yvx6PjYuFpyZ4pF5s+WoMTTjdrzTxcKHIPP7btxQGWpuZ8Gopq7DZVyDmXCevV5HpqruOtvhTegfCzXnPlUJp2Dvk19qNKpP2XjAZf4bRnKELa+Zq1wRWewX/ZtisG6qBohNdopZKquX82//5fc7+50Os3UyD2mpkYHyGWrXA/fv3lZ6zbJz6Q59EbN9/Sz/ml3SbXadNdqOOAkJaABY3CM7xmwgF84U8uzshC+2NYZ8vRbEL6hlX4K0sJT/aXWo1OpUWFTg03ZeOWaaqytDPIsjTVKbwQ1M6Lr0jGhKxdv2BvPR84Vnr2xMzF/8NIf3GEIQVfPfIQvkg2/1Xc/GUrwd5vf8dZyx/dsghct3QT9u3fj/3S7sBufPtgD9u9SiX/4rt1F6slqwlCr8CEvpbKBDR7P8Tbf2TZ8m3Iwvp3P8E+66d1EAZMGNDMl6DlcPdyE/cHpjoHZ9Nt1/Qas031RZnI1pgDI5lbELpNeBjv/fU3Vt5ku6dKm5OEDOvJuu48XCjykJ7o297WplL29wdY8leeOdhjtElr8erHhxv81HFzHW/1JQ/pgV6Scmj2fYLlmyXlSFyLRV/9J/nO4kbi2P64/Gsct5SNK8Lu95fgL+tNgAq0v2I4Ota3wbvJ+7+L/eZCr18kCxuLmVMTzFcpuHwc/WMdDuWZ68RnwK24saftUnMtzV2njdDk40Cbju2fvYpnF7yD748UWpcj5OKyHDPst/jHHf/Tevy2COpumDZrJILEM6Ex8wfMGHwFbn9uGb74/kes+XQpXn7sJgyIuwoL/xU/bBqzTBN5BkfA3/KZUH0EK+Y9g+Vr1uCTBdMw9p5vkFbPo1wuVwhfY/XO00NhuZXRlP0b/u/BFTjJtxo1d9kK92DNevFrA3khV+K2W8Zg0IABGCDt+g/FNbePR4L1c68MB7//DWea53bQC0cRj5vm3mLLtz4Jn97UE71G3owZM2/D+H59cLPkMq5nnxl48rrm/r5qd4THd4D1ti5jElbeOxnT7r0N109fgf9kDd+mupPvY1JCN0yeswif/7IN/+zZhO8/XIxPdlseqAG84/ogwXqTlIs8XKjo36sPbrqxp/WVVNCdxoc39sHga+/BzFvHoe8Vs/BTVsNbBZvreKs3z9646fqerBZFulN4//o+GDTlHsy6bTz6XfkAfnbxcFh9FW99EsN6j8Gd903HlIE9cfVr+20tUF79cNcs26Val5q8/7vYb0wXeP3W/dIfV949DebYUI/kTZtxWpjmjytuvw6drZ9LjjVrnTZGU44DUwa+uXMIxs56Dq+9/ARuGToOC/ZYc0/IpRcXH8/FWl65ExPLRcfENOHl3nV/I0yNVxjI4ySvN5DQneO+ujWmzhfBQh7FzVxfLC7ANGaZOhm40+/UfLXL3B2Sbyco/4dbMNC7dhqQcQH9r+VGRsrFYRXX/al/OPNruuv4RhjNv9yLg6Xr8+OGvXaAE1JsxrLl/Xwn10Hy0tvgqV9zmfbvMLEo3cY9Kn2lhOcg7uXDTflWF7OmvXLHxXYRFHO7XxjGBUpeseGoU0VM4t49YnmBOq+e+2c9GJJXcdeGSr/5wtx5Wl6Q3MBtWrF7Htelrpcpe/bi5m4sqPE6mrrz0LCXGtesh0run6e62V6r5DGIe932VSEcV7CRm9Pd3ZpejU4Rzk26dbTtm1Tq+6qRRh1vTS3HX9yjzsohD+XG33iV7UXUjX3ljqwdF58QaH39Uo1O5s9d+eIezpbj+u6fjd3/zVzuuxd8/SLdKW6J5LVgQhd0Lfdluv0HVtPqtMUdB+U7uce7SD53EchNWplW61VThFxofAxofuVOjBAb8jEiHys2qaWRkymgclNDpVJBpXSHp4fTm1cEnMIN7mo11EKnhPnl+nZUcbjz673Y9M5dGBgmeYpXJHcPRe9rrsfQUElajVnGFbkSKkte3dUwn7NF3lfgqZXvYWa/ANvTczI3tB/zLNZ8dg/i3Nyg5utExZYVrrGIFGq4sfW5seluXl5wF740hfEaiMeXPI7B/mJ6qioc+uBpLNlT2nxl47Kw46e9KGZ54tNXqyMw7PrhCLc1A9Tk2xdTJ3WBt5hftT4RG9abX3Zce7tLC1m3piwrqGu7CPwxdOEmHPj1RVzfMwj298QrPNtjyMz3sOXAL5jT2/wCdYt67Z/1oIi9A8s+exqj27tJWlnkcGP5FTRwm3IybwSFeMP+VlGZwhuRV87E+1u34u1x7Wq0mLrOA6t7th34sqrc3WquW6kW6kHYT/k6Fs7xNjI1qydh/2adWmU7BnjtxmHxhp/w3NXR8JQUTOHbDbe/uxb/GyiDtY1F7gE/XzE/dWns8dakcozHO3/9hhcmx8FLWg6fLpj2zmo8NzIQ3h7iseHhDrXdtqkXmR+GPL0cL06Mhod1eRlUgX1wz4db8cfzQ6xXIHj12z8bv//zXO43F3z9IlUn3DhzFILFQb5ewsfchfGRLiq6gXXa4o4D7/64a+YIBIsrc0+YgnvHN/fVEEIaT8a3NJpvZeTYf/7+Rv43EB8Xi63sZFQ3DkaD0fbRJVdAKa9j9zYZoTeKhwr/1KiCffDVdTRwOhRnpiAjpwgakxt824WhQ4cw+LvbfVJJNWYZR/gvlLc+BsjnVYFaRTNpUZKdhpTsSni1T0BcuLcQxJhYnRjFewCEb2uwLFhjneZp0vJzRgNbThxgZCxAUkiz3cSymYx6WKpfKJPSRf1LtxfD50cpLNDA7V5DU5Zl6rNdrEyoLjqPtIwcFGsV8A4MQ1R0OHydPajT0P3TBc5QgYLzacjIq4I6IALRMeHwsY+R671NjagszEZ2bgGKNCZ4BYUiNDQEgV6qOk8oTvNgty/yZbXWY43t7mA/MRnYdHFZVk8K6bJWrO4L0pCUlg+tRxji4iMR4FaKjQ/2w8QVKeYTpvcwLP53K57o6uJ6o0UjjrdmLQcL5mMTohDoJgPHlpUcGjXrzykTkpaNRt85O8yXS+VxeHDDIXw4zhua7CQkZZZD7t8esbEO9hNeg/fPBu7/EvXady/o+k1IW3UdBsxYZ35qWh6Ne387iJWT7V+10/Q6bXnHgRHlmaeRWOSB6M6xaMf2N0IuttGjR+Nccgq/a7O9n39bAN/DfjctaCSEEAldBTt5e8HbQQNixeE3MWnUM9gpvqPZo98C7Nz9IgZcwIcSWhYHAc5fh/Hh2BptX4Sn+RcvjB2DF8Wnajz6PY/tO1/CIMszZFYttE7pOCCtnLOgsYHNb4QQ4hyX+xNmDBiI2178Cpv2n0J6TjbSTv+LdUunY9joZ60nSshCMG7ODPSlEyURcEjb+BnWbDuEQ7t+wluz7sKblsewZWGY9OQDGFgrYGy56DggbRUFjYSQZmRAReYBrHnhbowf1A3R4RGI6ToYUx7/AkdKLI85u6PTvR/i/Tuja94HRi5rsowf8NDo/uh/1Y14eu1Z8ZU0CnS44XW8cWN7tK6LtHQckLaJgkZCSDNSQKly/rGiDOyFW5dsxZ5PbkCHy/1MKVz2IVK2uwt57oie/Cq++3Q6Ehxc5nWoxdQpHQekbaJ7GgkhzciE6twT2LF+I/45nY7s3BLo1H4I6dAFA64aiRGDuyLE/XINlTjkbH0fH27PFb9qzws9bn0U07q3ouuuF1DZyV+w8pstOHG+Au7RfXDl2OswdZj0KWhHWmqd0nFAWjd6EIYQQgghhLhED8IQQgghhJBGE4NGvn1RJPRYhwghhBBCyGXEHAWyn2I4aBmmlkZCCCGEEOISBY2EEEIIIcQlChoJIYQQQohLFDQSQgghhBCXKGgkhBBCCCEuUdBICCGEEEJcoqCREEIIIYS4REEjIYQQQghxiYJGQgghhBDiEgWNhBBCCCHEJbnlK2L4r4eR9Nr6CSGEEELI5UUMBKXxILU0EkIIIYQQly6ToJHaTUlrQvsrIYSQlkcWFxfP8RemOf4nf64SfnOIi4/Dtq1bzXM5UnoQ367cigw9B5nSC2E9RuOa0V0RoBSntxRV2/FIr6fQ4fe9eKaLJEbOXIGxw3bikSPfYKq/OK6hOD22/VuG9Ah/3BOpAKfT4a/DJdiQZYDWTY3hfQJwe4RCmFWvqcIvh8uwNc8IlZ8HruvnhzGBYn6qq/DtgQoUhfrhoY4qyMxjoc8vxwdnTBgxyA991OJIUV1ptVh8OQ9WwqdzIK4JspSyGYj1l2FiO7RMBj9fNwyI9UQfX7n5ryLpdIUC0e29MSVGBQ9hYQe4NGz+8Hsc0rAFJGQyN3Sb+ggmd7yA9exsf60HLn0VbrphJ27/cxVuDBFHWtRrfzdiP9undsg8cX8fD/iKYwvSirEq1cg+JWSI7BiA2yKk+dJj+75SnAn2xwNxLe3gJ4QQ0hijRo9G8rlk4ZzKfgi/+d6GnZWkFAXY8t6n2JGaidQT2/HJQ0PRdeJSnNCJ01sQjqt58m82Mg5HDhViq4b1V2owe1ky5iVyiAxzRzRXjXUpevApFyTmoP/iNLyeCcRHuCFIU4pZ7yXhlsM6dppm5EZs/Tsf83/KwdpyfoSZwlSNVXsqUWwfX9WRVovGyrlldylOWMPiZsKvd08xdhTrkV6kxbZDuZjy9hl0/74UKXylSKan5pRj0eokDFxXgVLz0rVxBpRkpyEjIwPp+9fg/e8PIyMzkw0XoEKcxbVM/DRnKp5cVyQO1x//R1tjyPz64IYZ16CbNz/UmPQV6BPB4effs7E0W8yDrhJv/ZyHPX4+6FFYhFeOVKPKPEXAFZfjpS0ayAIpYCSEkLau8UEjz+SL4XOW4v3PvsfOA19hwqnl+HR/tXlSVQHSk5ORVaoXL7aZ2PlHg2qDMMAG9aiuEoMmhmMnpwqdLewxlGcjJSUbZXpxhEmHyopqGIxalOQXQCOup9Z8In3peaSk5aHCkp5TJlTmpuBcVjnMsxqhleaTZ6iCho2o61RemlaKdcpArLk9FE8MCcQzkztg9VB3yCvLMe+HUnS5Ph4HbgvFk0PaYcHUGByb7odTf2RjlRi5cDI3jO+gxcIN5cg3j3LKaVridIPWgJRiA8qslcuhUsfBYOJQUmFEkdaEammEaTSx+rSVztXydg1wVpXJe7D5eH6jL66a9EYW9OmQVW17KEunl+SV5aNaz9n2GZZvlh1xQIHhV4Zj2XUR+PbeeKT/XyRGpGdj+j86czAtTn//xihsu8UPZSfLcdzZviGPx00vL8OyZcvwzMRQyDtMwfPvvYf33nsZt3RUON7nTGy/PJ+MlOwy6Fk+OaMOmUePI7tKg/Iq277TuP21nseOT3dcf89kdPRwnj7LATTZyUjOrXT4R4YqtB2WDgE+3lCCVFaOo3tysMY/BEt6u2F4Ty9o/ivFPskfhkmnSnGugz+mNLa1nhBCSKvRtKCREZouee5+8FProdVV4MjSyYiL6IHRUyZiYEwEBs7bCBZC4pNreuLun/KE2fWHF6Jf6CR8ms4PabDl8SG47pMU1l+Bw29PQFzcFZg0cTD7PQnLT7KzVNZKTOlxA+6f1gsdO1+LZWfLHc+Hcux9eTg6xAzGhElXoff4d3Ba4aSYslJseHQQ+oy+Blf3jUL8dR/htC4FH03ogpu+yRJnMuL44nEYMm8rW7Nznv5qhBSX47NEA6TxQGFyKbZ4B2JBT1WNyvaJCcRDYdVYe0acm53V+w8LxfDUHDx92hIOOOYsLT64OLwrDXGLkjFpVTL7nYbleWzFZcWYsjQd93+bhI5vp+GeT5Iw7ag1AsHujSkYubUK1fVaPh3LCsRF7VQdXo6FX52zy1N9mHDkb5bua0kY/UUaBr55BgP/0LB9Ro9PPk/C3f+Z86rPykO/V9PwaYl5mS3rUnDdv7YIRtp+qfD2xvMjPHDqWDnOiRGTkQVB/HJnMrTwivZE5wY3jjnZN/PX49HBCeg3biom9uuBW77eg/cmjsKrh7Pw+6NXots17+Is52RZh/urfUtsPY8d/hjpPhPrShIdpM9mlRfh1wcGY/D4SRgWH45BC/ehkl9FDTIMvCoMN5fkY/7uAszbK8dT1/gjhmXJJ8YP18rKsYa/zs/jtPjliB6D+3oj3DyGEEJIG9bkoFFXlovM1KP4ZeHT+EY2Gdcql+Kexe54+WgGkk6cQUbip+j2/f14fksgxlzTHse3HGGnSQNO/nUYQd3ZCe/vHLaSU9i8ywPjxsRCd/gtzFjeDkuOp+DU6XPYObccS178jQUQTPFxVE7dhJyi3Xi8arHD+bIOL8IDHwRj8X9pOHPiNI683QV5mY7aVJi8f5Ez9iecPHECSSl/4OazL2HBr364cUZvnPzuL5zn59Efxdo1JZhw11XWe7wcUYUH4acbPbD920REr8jBmnxzmvlFOiiD3dC+Vk0r0DFYjoJSg9jCyXh649VJnti6Lg+bqy1BTm3O0tJlFWDGPwoseawTTs3riJ1DTViypdxcd1VaVHaLQc6COLw3yA3HjmkghMW6Kqw+KcMNvT0gr9fysXg6mB8hwbescSbo9KwkBqOQbydZd4jP9z075XiZpZv0eEdkPNke3Y5n4flzCozpqsLxc9Vsn+Fw8mw1gkJZsJjG0jFqsTlVhnEJdjd7SrQLcoO3Ro88PgZnAc7iT84i5IWzmFnohw+v9oF9MVxxtm8e/nEx1sUtwf6Tx3A6+xy+vfkKPLZxB57rG4HrVhxFxpYnEHvE8bKO91f7youu17FjJetUK/3OfByaewy6aevx3/HTOP3LbSj6/HPsrR01AmpPLJjkjb0bWNg+NBwPWO4/VXni9l4K7DheKfwBZcwrw5pyL9zVkS5NE0LI5aBpQaPxON6a0BP9hkzFS2dH44tt7yLh0HZoRk/HlCiVMIs8aBSmjVfi0P4MxI+/Gh67NuK/qiSs36zAxFtjkbTpEIpTtmGn2wRMSJAjfecWFPmXYvXDN+PGG2/Fc1s1qEo8hRw+LvLog0njoli4JUfmbsfzHd25DcXDb8Ok9uaHFbz7TsTwMKG3Nv9hmDYpCsIpz7MvplwdgHMnMhA2ZQYGnV6NdWkcKvZ9iV9Ut+Gege7CIs7JENMzAkf+F4/lUdV4fNk53HfaCIVcBqORswWGEjo2Uq0SH9ZgZOxfaPdQvBNVgae2VkBjacWtxXFa6SkVKHI3YfWvGbjx60w8d86EqgItcvgYROWOSR1VrO6A2G7+6JNbij9LgZKUEmz188ftIbJ6L8+KJJGPtbdHIyAgEF1m/YoDH01GRGAgArs/jh3Sm9/qwKeriecvcZpXLPfywrSOMhzK0CO+ozc8UjX4T6/D+iQZJvZSIymxGsVFFdip9MaEdsIiDum0RuhY/XrxFSxzw2N3xWH/nBi8E1GBez/IwOoy83z15WzfxJCr0X7jQ5hw7xJsStXDzd32oIxSaT4OnC1bv/1Vho71OHYcsaQvaDcUU0eEsLUBvl37IwGFKDLfTWLHiMNJ1QjsoEZmUgXSrX9zydC/hw8Up0uxq5rDsRPlqOrih5GuDg1CCCFtQtOCRkVPPLMzC3nZKTj088uYHKUEZzLBoBPvIxPJZSwwYpGGsvMkTFBtx8YN67DNfRJuu3kCIo9vxp8bdwJjJqKLkoPJaII8eizue3g2HnzwQcye+xa+fu8WRPArUvvA143vcTbfzWinN0CuVgvBjcCghdZRxMZTusHN2khiQGWFDgq1CvJ24zHz6kL89Pu/2PHtHkTOuBXdHTWmcCyo1IOtwxZFyVjaN0yMwZ7JKvyypRgVYW5QpGuwz/7krK/GllQOPSNsl63Na1Hi+onBiDuWg7dqtTjVZJ8Wi/EgD/DCfUMC8eDgAMweGoqvp/ia604hh6+lDN7euDdWjx9PV2Hz0Wr0GugrXH40seTqtXwNwZi2Og1FxUU4/cl1GPDgH8gqKkLhiSUY4fTx5Jr4VkkDC6xr7DN8x34og1hgKK/ExrPl2Kbyxm09vRGZq8GfiZVAvA+cP2BsxO4TVfDv6IWO4jweHipEB7pj9JAQzPCuwvrMum8DqMn5vhnd8ynsSN6MJ9tvw8O9OuG277LFZSyavr8qXB474ox1kSmhtCTEH5Nir72y5Dw89J8bFtwWjlvK8vH4Ect9yewQDPfFLZ4VWMOCye+OGTGulyd8xGmEEELaNqen3PpSKqVnKxkihwyD17Yv8Vu6+cxnKtiONZsUGDo8FjJVd1wzQYFtn2yD+8SxiI4YgfF+e/Dpz4UYOKEH3Njy7fsPgGL/Pmi6j8a4ceMwbnRvRIQGwfJ2GjNn8wWjS68eMG37ATsK+BCEQ8H2tdiUY16qlsJ/8PvfBcIJ0ZS/GavXcxgyPJ5Vig+G3zUa+d8vxYrdEbjj+ngxoLPhAx1jWSX2VKjRL1iO/JQybCmzPMDBCSd+pYoFWjHt8HiQBo//WoJESzBg1GPdhmx86x2IufG1N4HMxw9LxquwepcGegfBgLO02rd3hyKzCppQL4zr6I1x8e6I8FYi0D7zLEQZ1ccTaccK8WWuB6aLN/fVf3k7Mpnwh4FazdbDohKFMCxOc0AIEFnm+Y6vx8goT3gll+C3EnOJTBV8UCLD0BgVZAp3XNMJ2La/Au6dvBHt64XxbpX49IQBAzuxoF9Ywox/UMfEVlhdqcUPf6Th3mQPvDrCC1520/PTSvFHiQpd27G6N5YiO7dCrMu6ON83FdkZ0Pj1wrRXfsbPz0Xh0Eb+MrKcHRsmVFZp61i2Afury2PHnjT9BtBW4Lmfy9Dt6lBc5++JZyb64L8NOfjeckOv3A039VHhn38K8Bvnizsixf233vVICCGktWpa0OggMHC/4jmsnFOO+T3C0bF7F0R2fhhZs7/AwiF8s5M7el/dH6lb8jFkbAJbPAqjr5bjQGI3TOxvPrV7jXgey248hVkdI9CZnVBjwgfgyR21ryM6m8937EIsHrsP93SKQ9funTDyEwX6RTspZkgsSpYOQxeWz+hO9+PUbSuwcLinMMl94D24ufpPHBswC5PtLxfqKzDn3TOIeCcXRQNDcac/O92Xl+HuRacR+NpZRL16BlfulmHuJH/EKd0w985ITK/Mx8BXTqPDm2cR/Mo5PFbgizV3BaGH7UpmDZF9w7EwQA/LczJSztLqEReMZT20mLX4DDq/m4SY15LxZIrj1jSfWH9cp6tEXmd/jBIvL3rF1n95R9z7PIQX7oqH5IJoLTJTNV754DT8XzwFv4WnMHBbNVRRwVh5pQnzl55BxyVJiHwnG1mD22NhFL/dZOjdyQOpSUYMSVCzIRVGd5LhQKE7JkpuFLWsl19nwFtpeKvCDz/Nbo/rhNfPmKe/LE6P/LIMHSe3xxOhMuR+dy969nkAv9f1ZhpxP3e2zxX+dCdig+PQo1dnjFmixvTZV7E/O8IxdFwoNj14BbpOWoLMqxqyvzqKuF0fOzXVTP9MvaI5E7ZtysYPgSF4u7f5Dwn/TiF4K74az20U721lKXft7ouwjEq49/ZDX/GPmnrVIyGEkFZNFhsXLzy1ILzcm40Q3hHHOpcv94YR2opqcG5ecHfQGmbU5CI9twpeYZEI8ZJERkYt2GJw83SDcFVXXwWNUQ0vd4Xl3Mxw0BVnIoOdgPzCIxDkyZZny1VWc1B7upuXEziYT2BCRW4qck3BiAr3gqmyCia1XT6F9QFqFsuWnc9ChXcEOgTwbZ0i3SEsGHQHSt49gPdG2J+UOVRqDMiTKRHtxd+JaGYyGJFTboRepUAYK7ObrUACXbUB5ytMcPdSIczdthy/Pq2O1b9SDndJfMu/UkZjlMFTLbNdvhTVlZauSg92ToefrxJBKjbBxPJr4O+flEnqjl+HCVqZHB52K6/v8g1nLif7b6VgZbZsNqPOgPRyDl4+SoSwMlux9PlX0bhZ0ufrhZPBiw2Y5zKvV8vWyz/N71Ern5J02Xh3lRx8sQRcNco0cvj6OH6ghtNXosLkBm83SyU52ueMqCw4j5wKNYLCw+BrXRUbn3ceReowdPDnRzZhf+W5OnZMOlSxY0TlIU6Xpu/DtqH0+OFfYVVlgooNW+uC0elMMChs20TA6ruc7YfSetXr2Xxyyb7joh4JIYS0HpaXe/NXEvnHK/izrUzOusYHjW2VAZVlZUj/4X5M+WI4/tz6GBx9AYhs/gmx7/LDvd5d7GuYllhnjS1LW9XYbUT1SAghbQcFjfWWho+vG4O3Csbi1a+WYVpcXRdbCSGEEELaFmdBY9PuaWyTonH/r0lI+vsjChgJIYQQQkQUNBJCCCGEEJcoaCSEEEIIIS5R0EgIIYQQQlyioJEQQgghhLhEQSMhhBBCCHGJgkZCCCGEEOISBY2EEEIIIcQlIWjkX+ptJrzeWzJMCCGEEEIuN7ViQTaCWhoJIYQQQohLFDQSQgghhBCXKGgkhBBCCCEuUdBICCGEEEJcoqCREEIIIYS4REEjIYQQQghxiYLGRuHAcfV5NZF0vvouQ5qmpdcz7QeEEEJapyYFjVzZWWxYsRBzZs3AfQ8/hTe/2oX0KnFiM6j89yUMDQ1G70fXo1Acd2EZUXziNyx79mHMnPkwnv9kOzKqxUkSmk0PIsbdC1G3f48CcZyFNM/pkvnSJP0ZF71clw/rtrmj9rZpCVp6/gghhBBnGh00cpmrcXOXbpj44EtYtvILrPxwEZ554kMc1IozNANtQRoyCwqRmZKLSnHchWT671WM6n0d5rz+ET5f9QFeuX8Uel7zAZKM4gwiGTgYdVWo0NpNYKR5rpLMJ13mYpfrojPm4O+Pn8LNV1yH95IvbptaXdvmonNQDy0qf4QQQkgDNDpoTFrzHn7PNiJoyic4W1aB8tIsHFo+GYEGcQbGUJ6Fc4kpyKswiSOqUF5WhvIqA0zVRcgr0qBSU45yTSV04iycrhJlbJ4KNiJg/HIczc1D8o93I5Ity48vrzaweUpxPiUFuZb1CkyozEtBUkYJdOykzM+rqW7YidmgD8akJbuQycqjyfget0fIUPr3avyR5jjwkbGO05chKyUZ2eXmtKR57iCMqc1fWi5xnKmqAOlJiUjJ1cCaa5dlFtnXa4mWhSbiJPttIJDWlbm+NSyI4fS2uufZD/Mcrs9YhaLMJCSyILjcwIEz5WLj8nfww5FCaCvLUKkTc1NjPvMoew7Xb9KiJOsczp7LQqllXSJOW4zz5xKRnF0G6SQZ6+enpSenoaCq5jICa92y2ua3YWoq8ivNaRrKspCSlocKuzw2bBvVUQ+My/wRQgghLU1sXBwXE8u6mFguOiaGi4qO5iKjoriRI0dxdUlZdhXnwc578oiJ3Fs7srhqcbxZEbfz+aFcO4UQu3AydTR306pErmTT/VwHdroMGXUTNyZUwfmOfY6b29udkym6cs/s17LlSrjfp7fn5Ajkrvs6m9OI8wfdvJZLsyw7ehp3dXuVeb0+Q7jXj7CUjZncDzM6CfkBlFz7IYO4aDZvwJQvuGxzhhqudAM3M5Kd2n3Gcx9niONEmo33ce1ZWu2uuoEbG27OC9Rx3N0/nOfKpXkW5wu44dua/ZJ58lld7Xj+Ki5EZa4rQMEFDJrHrc8xWcvvsMwS1vks9Tr+Ey7dyTbQG89zP87sLKmrgVwUWzZw6tfcf19dy/mz9OMe28FVsfWmfjCK82LzdHv2AKd3sr6yQ4u4sWFqjgXQbLyMC775HW7hYLZNhWG+c+eGvH2Wq6w1H192Kcfr151Zyo3wV1rXJ/cbzD3/dxmbv5w78PYkroMbH37x0/y4SauybNtm+FRuVKjSvEzgGG7ZKb05GZGtbm/lJkaqzWkGjObmvzyNixK2hYzz6v0Mt0vDz92IbXT4KPeWg3qob/4IIYSQS2XkqFFCLMjHhHxsyMeIfKzY6JbGmFv/h5ndPWDKWo+nRkQitMft+PCIRphW8sc83Pby31BMfB8Hz23BUz3y8MOTT+HnYv7sySFv52Zk978DU/t2w4SpnaEwnsPmTedgqjyE9duzwYWMx90Twswteeyf0Wiy9ucdSEbnhZ/hhXEh4Mr3YuXXR5Dz6//h4ZVnYYiaite+XoE7VOeQxuY1sOVq0aZi84ev4KVl63Cy1AhU7ccHD8/C879mijMwmqNYdtt0rMqQs3I+jpudNBkW7j+J0Cc+w4ePDIKvLhlfP7sUB/W2PDsjLVfRr4/i1pd3orj99Xj1q6/w5rQ4VP77Du559AfhnjdnZdYJazKz1o2lXnv7oszJNlj1+ZN46LMz0EddJ9ZVMtLZsgYjfwmdX48RRgMfy/BhEwcTGzaZZE626Ty8/Mbb2JwThFs/P4STx7biras7YNAjr+LO7irAoz/uX/I27hvIYeu7dvNNCBLSsHC2z3yX54G+sz/HjuOncPSnR9C1ch/ee/1nJG5+Ejc9+SeyPAdi9tKv8fUHD6Cfu63OC4+eR4+XP8Pzo4NhKtqOj789aWsdZKx1djAN3V76GE8NDQBXvBWLPzVgzpfv4tY4BSqOsvX+U4HCxmyjbzIwsFY9eAtp81zljxBCCGlxGtvSKNBmcdvfnc4NDBFb2wIncZ+lVnDbH45mwz5cwrDx3IQJE7jR3dtxkHXi5r0/S2hl8Ri2lEsymVdhOP4K108Nzmvk+9yZfU9xneXg2s9Yz5WyaRWb7re2zqWL/f7XfsXlsmkFa2/iAtlw+L2/cH8K6XlwI5anCuus2vEoF8Om+U5aZdfSWMT9OTOKU3iFch0C1ZzMM5IbOKQz56PuyT2739x6pz37OTct1k1YX6e7vuaS+AZQO5bWIv/rvhbywhX/yt0ZysrvM4lbsdaWZ2ctjZayBNzwBffLQ1EsLU9u5Ptpwrq5jI+4MZ7gZJGzuT/XOSvznxzf1mZhqSdbvVY62QYdudtv5tOT1tUj5rqa8iV34qtrOT/WH/3wdqGlMe39kZwHCx27zN/DbXGyvumzenFqtozMI4IbdMcb3MZ0Hduox7gXeik4uA3llpzjU9FxBxf0rj2flbP8duKe/vsc98erd3Fj+8Zz4QEenFIGTtX3Be6LR2LY/O7cMJaAuCsJ7LdNzpdThDJFzd7KUrGx1JnflC+4HDZ8bslQzo2VtdNT/7LcarjND3Rg6/fnrvs6ndvW2G1Uqx7qnz9CCCHkUmn2lsaq0lLo1OEYMWcV/k39G/N7qoCivfhzbyEMBr7FRw3fkAiEhYUhauAUTL9nNCLE1jf3kFD48U09jKLrjbi1rzsqDv+JlV9vxDkWwlx353D4mifXIlMqhRsxFSqVeEOmCXodf/OZHCqVQhhj1Gkdt9rozuLQ+fa47b2/kZ6bhf0f3oXO7Qdgzjc/4fkBbkDB73hg3EyszYrEnV8dw9Ev70A8i3ScUajVEFI0aqHls6BUQ92gGuVgMrF4hFEoxAoxmdhYRi633nBau8yO2eqVc7INRsC/Vl3patUVJ+aBRWPmEU7XNwb97v0NOz54ECPCy3Hwm2cwceQT2F5hXsqMX4cK/RZsqmM+Z+u/Crr3J+C6Z9dDP/ZZfPbTW5jsz2ZjZTTo+FzLIGP1JtZcDTKFQqgrOfvtaLqFXGXehnKFnF8blCql8FvO6t+subaRpS7N6ps/QgghpKVwfH6rh9RPb0C/MbOw8N0PseyNd/Bbip6tLRix0cHoOrQPAlCI5OwQTJj5EO6/cxw6dZ+Cm7oqxaUlFJ0wdVp/eJT+h/U7UoAu03D3lV7ixPpwR0K/zvBGBXa9/QyWrvkYz/xvLTLYlJqnaUY9GM+u34OvZsSzk3w79L/7VXz1/dd45aYEuLG5k1cvwto0I8L79od808t44J57cM89c/D5CcdPbRRueAPPf/QNls5diN8LAa9eYzDQT5xYL27oNvZKhKISuxc9gTdXf403nngbuytliBgxAT1ZHNs4nk62wfWYcbVYV4ufxpJvV+Dp/60R6oqvLffgYPA1n/3XCqxYuwKvfnIA5jcouaOLw/WNRODOT5HY9QG8//NKzOqkhLE0B/l6D/h4sW2tTca2777AF1uO4o9F79Wez/o6I2f5HYVOlQUwyLwQ3TMBxh0/YRd/iwOnRKfRgxHMcvf3S3fjsQ++wdfLnsLz358X19ecPNCzsdtIYV8PaeIEJ4ylyM6tqL3fEkIIIS1Ao4NGyLRI3/YZXpr7EOa8tAYndWEYtfBTPHuFOyJuW4YPp3eBfu9buHX4IFw59h4s/bdUOBkKrTkKabJyJFx3KwZ5peP4sSr0mHYr+osnYvPJUwYFm9+6rNLcQmYelgutP5F3vYVnR7SD4ew3ePy2edgVPhAxbHrDWnF0yE7PgZ4tkbPvO3z11Vfmbs2/KFCb05Ti8xLSxRPbHr8Tj399CobQq/HqslmIERI059kyn6W8ln5pudrdsAxf/d9geKV+j2fuuAvzf0hHwIjnsXrJNeDjT2dllrLWjZgOz9k2iLx7kbmuEldj3u3zsDOkP6KEJWTwHj4LM/t7w5C8Fo/f/TrOx3VnQaQCcjnnZH1l0B3/GNNH9UX33jfj45QgjJs/H9e0i8Xk24chQJ6N3+Y/iI+OGqB1OJ+QsMDx+mUYfuckRCrS8OXdo3DvZi90bcfXmwKBN32Ab54cBL/i3Xjv4Ttx15yPcbhSUs9Kc7+5bhS16ownrTNOGOLLKgxaWwJlMg7Bjd5G9vXA/rASpjvOX95396Jnnwfwe5EwiRBCCGlRZPw9jRx/5hK+pYL943+zLj4uHtu2bTXP5YShsgDZ5wtQofBFWPsw+LuJZ1wBB11JFtJzK6AK7IAOwZ5Q6KtQVqWH3M0L3m7SQMwEXWUlqo0cVB4+8LA0SFrn94a3QovyShbS8f18OuI0BRv2ggalBiWMhVkoUXkj/5PrMXrhPrSf9zeOvz0E9W2wM2krhFfP1CSD2tMH7tJGUv41KywvULrDXZ+PzCI5gjqEw1fFptnlmZ+vVr+c9VvmEevMWJGHjKxSyAI6IDLIQwhYhFfpOCuztK6d1quDbSCM1qHkfDoKFaEIOP4k+l79MUqmfInE3+5CiLES+Rk50AZEIsJdJ9SHwp2lJ1x3d7A+UzVKcrJRUK1GYHg4Aj0s+eLnPY/MYgWCI8PhI3c2n5Tj/PKv4cks8UB4hDdMVdUwKjzgxXYSPiwzlGcjPacS6nbtERHoDrm4bax1wb82qMpQu87s6pZ/1RP/2hxLWS37gtLDF578dmUat43s6gF15E+tQ5lGDl+fOu6JIIQQQi6wUaNH49y5c5DJZOaOP+Pyv5sSNLYYGR9h/JVLUNWzC3yKjmLnv2mo9BuDZfs24OFODi6JE6uq7Q+jy6gPbEGjOJ4QQgghlydnQaOj5p7WRxaKrp3ccP7Yvzhy3g09bnoOP/77OwWM9WCCO9p1iEZ7P6orQgghhDjXNloaCSGEEEJIs2jbLY2EEEIIIeSCoqCREEIIIYS4ZA0a+SvU5h+EEEIIIeSyZYkHhdsXbYPU0kgIIYQQQlyioJEQQgghhLhEQSMhhBBCCHGJgkZCCCGEEOISBY2EEEIIIcQlChoJIYQQQohLFDQSQgghhBCXKGgkhBBCCCEuUdBICCGEEEJcoqCREEIIIYS4JJd+daDQK35lDCGEEEIIuUyJsaA0JKSWRkIIIYQQ4hIFjYQQQgghxCUKGgkhhBBCiEsUNBJCCCGEEJcoaCSEEEIIIS5R0EgIIYQQQlyioJEQQgghhLjU5KDRUHgUP771CG4aMxi9u3dHr/5DMOraGXju4x3I1IszEUIIIYSQVk0WGxvHCe/zZj/5jv0QfsfHx2Pbtq3muZwo2vEsJk99A3tLTOIYG0XCHGw98i6u8hJHEEIIIYSQFm/UqNE4d+4cZDIZixRlwm++a3xLo2YXXnlwkRgwuqH9VTPw3OLlWL7oOTwwpS86eKvN8xFCCCGEkFav0S2NxpNv4sr+z+DfakDd61n8ve8VDHAXJzK6giyU+UYgiMWOnMkAIx9byuRQKOSQGTTIO58DjTIIHSL8oWaBbC2cAZqCbOQWV0PhG4LwED+42YW4tddbwdabDY0qGJHhflDZr5ets7IkH3mFlZB5t0NoiD/c7cPm+qRrZOnylSamC105ispl8A30NqdZn3QIIYQQQlogFy2NQtho7asPmdoD7gpzvy5lE37ckweDeVCgDjIHjDAcx1vDg+Hl5QW/rrPw6epncFX7QITFdER8h3Zo12UaVhyvNC8kqMLZNXMxMtYf/iFRSOjcCbHhgfANH4gZnxxBuSWDkvX6dpmFlWufw6hIcb3tgxB25dPYXGCZWY+03+ZjQucgFthFILZjAmLYOv07P4S/SsVZGpLuiBB4s3T9u92Pz76Yg37BAQjudAfW5tQnHUIIIYSQlq9mTMg1/vK0PGosruvvax4o/xdvjEtAt2ueweojhTWCR56uqhI6nQ5VhTux6LG38U+ZGm5KvknOBM3Z7zBn2rPYJgRVWpz68EYMv/1d7EirgFGmgLunB5QyE3R5B7Dq/lG4ZtFhWEJMy3qry/7F8v9bgr1lCjYvP8WAor1LMHfRXmFe3bG3cdvtb+CvxFLIAjpiyJhRuKJ7B3jLLfdiNjTdCmj58miTsOa1j3GkzChUrOGUq3QIIYQQQlqnxl80VXfDI6s+wvTOHuZhUzkS/3gTd/SLRMKUN7GnqHagxBXlwO/e9cgsL0d5zi4sHOIjjNed/h6rdhYBeb/jxZc2II+PwNqNwRt7clGuKUfR8Y9xfQSf1RLsXPQifsoSFrPi8nIQPO8f5GvKkPbLLCQILaB6pOzegwwjkLt/O05W8OOCMHnpFuzavBX//JeG87ufRV83NrqR6ZrSduJfr+lY8dff2PXVLAQdc5EOIYQQQkgr1figkVHH3YZVx5Kw493pGBTmBqGRj6tC2rpncPWk13BQetWZFzwRTz4xFqFKGZTtrsS99w6B0FbJFeL0f9koOroRe3P5yE2O2JvnY/YV7aCUKeDT/XbMvTnenNnCg9h6pITvswkZg/vv6AVvmRLhV12PYWHm0bqyYmhY0Ogd0QH+wsIF+G32UIya8QZ+OloIeXAkQtyBssam694fT362FPePvxLDJk3B0M51p0MIIYQQ0lo1KWgUqCNw1ZxV2JeRib3Lb0G82KKm2bcci/7MMw+I5H7tEWFuXGRk8PDzg3l2I7RVWlQUFKCCj93Y2NDYCNje1uOOdmEBEJ7H5qpRWqoVxlrI3HzgY3lYW+0NX+tTJ/xDPUDAuIVYOrsP/NhorjIDu1bNx419ItHlphU4UQ1UNjJdBHZF32hbNOgqHUIIIYSQ1qrRQSNXmos8aSCkDMKghz/Gh/fEiCvVIOt8GaQXqU0VhSi2LqNH7rk0NhfPA8HhAfD284e70FypReH5fNhWX4n880XQ8b0ybwQHi5fE60sZianLDyIzcQs+/r+p6BGoZCOrkfzj81jwSw7cG5muTKGGWnwYSOAiHUIIIYSQ1qrRQaPx/GpMH3ETXv7hANKKKlBdrUHe8XX4bleOOVCU+SIy2r9mAtnrsfzzwygzmVBxZjVe+/gQqvjxHl0w6sr2COg7HoND+BEmJH33FlYeKoGRM6L0yBdY/MM5Yb2yiGGY2Ed8AKee8g9tx5FCI7zjRuO+t37C3z8+jM58PMdC1uzMEvg0U7qu0jEKcxFCCCGEtD6NDhplMj2Kjv2IBTcPREyQD7y8fBHa6058esrcTufVbwYeHhMk9FvJS7Ht//ojyNsbAd2mY00q/5y1AtE3PYOZvdRA+FQseGoUAmQAl/MH5gwIgre3D4L6PYo/cji2fBiueXEBJtmttm4cKva/ihERIYjpdSVGDuuHXte/jzN80h5dMW5ENBTNkm490jHPSAghhBDS6jQ6aIR7JHr2iIAX/44bjoPJxN8UKIPCIwwD7noXmza8hCut9y+aySKvxVOPjkCgoQp6vvlO4Yfud36EdR9djzDh8rA7es37DTs+nYVBYe6Qc0ZUV1bBwCngFT0K877dibUzO0LFz8qoPTzhplbD091yQ6OZyt0DahU/XpxT5QlvWRnSjv+DHX8fQVoJx9Y3Gk+t/RnPDeQvOTc8XX79Hm6WMSKX6RBCCCGEtE7iN8KYvwWGf2jE8q0w9fnuaZ6xuhQFeQUoqTJCzX/7SWggPM0vSzQzHMfLgwZgwWEdCxpnYv3xTzFalo3M/Gq4B3dAmK/K/NS1PU6Hsrxs5JUa4BYQivAgb/EdjDb8N7MYWLAqkymgUMrF9bAA1miEkR8vV0DJf2MLP1ZXjsKCQpZPOXzaBaOdH/8eRmFSTQ1IFyxdpTVds3qnQwghhBDSAlm+EYYFWOy/pWuGoNElB0Hj1X7iNEIIIYQQ0qI4CxrlLERkQaIwD2PtIYQQQgghlyVpPMj3s479b/w9jQ2gEC8RyxX0KAghhBBCSGt04YNGZRfMWZ+CrKwsZO59EyPsHo4hhBBCCCEt30VoaVTBOygM4eHhCAv1h/XLWgghhBBCSKtBIRwhhBBCCHGJgkZCCCGEEOISBY2EEEIIIcQlChoJIYQQQohLFDQSQgghhBCXKGgkhBBCCCEuUdBICCGEEEJcoqCREEIIIYS4VEfQSN9DTQghhBBy+aoZC1JLIyGEEEIIcYmCRkIIIYQQ4hIFjYQQQgghxCUKGgkhhBBCiEsUNBJCCCGEEJcoaLzo6Kn0xmlF9cYZoNUZaUtf1mjrE0LanqYFjdx5bFvxNr7YV2we1CRiw0cvYO4D92H2k69j9WHzeJ4+7yC+f/tpzJ51H+a88DG2JFeKU5jSg/h2ySK8vym9xket/sxveHfJdziiYQPiPG+99RYWvfM+vtp4CsUG83zI/AhjY+7ALyXicHPIXNG4ddaVl6rteKTjYLxx2iSOaBgufRVuHHAvfswTR1wunNVbY7eRM82wvuoj72BCbDjad52BX2y7f23S/aQZ99/Ldh9hWkzZ6zjOOZ0OG/blYe7PWZj9ZwFWZxnFKZcxbRb2frsIT82eiRkPPoHXVm1FSoWL7cmfD5a+h3WJlpMArxLHvn8by/5KE4fr0JyfHRdgXT83ZF3N/Tl4iRj+7wPo+txr7Ywf/QLkFkN39Tzb+KEPgTuWJC5BLoWmBY2yahz5Yhm25smAog2Y3e8KzNtYgchevRHNHcW6nRngPzYLNj6G/glX4/X9MsT36YGg3O8wq0833PJVCoSPTEUBti59EfPvewJrs/kRZgrDUaxath3FfC7ZPFve+xQ7UjORemI7PnloKLpOXIoTOvO8Lenv+rrywnGNCxh5Mr8+uGHGNejmLY5odTLx05ypeHJdkThcf02pN+canx/HyrB1+WfQz9uN3MRVuM5fHO2EdD9prv239e8jjdeSyu5wf63UYPayZMxL5BAZ5s4+I6uxLkUvfEZerrSnP8FNXXrgrlUp8O7SD32iFTjxyf+wZK/GbnvaHav8+WDJVzjBKczDAhOyN3+Ctf9VtajzQYNxrnLf3J9bF5rr/Jo27Rc6KeNHvwoBIx84ItAA+WPsrwdTBQyL1wAVVeJc5GJrtsvTpX+vxjqPR7Hmu0V44uFH8Mzba7D6sV6QF/2Oefd+jy4fH8WBNW/gyUcew4IPN+PYnzfj1LzZWJVhPkA4RReMH3AaC+f/gnxhjAMmXwyfsxTvf/Y9dh74ChNOLcen+6vFiRKcHmVZyTiXWYQquz/kuepiZCYnI7NEW+ODxVCejZSUbJTpxRFWBmiyk5GcW1nrw91UVYB0tq6sUn2dH1L60vNISctDhfSPYlGtdE06VFZUw2DUoiS/ABrpMj7dcf09k9HRQxw2sXnOJyMluwx6Rxmwn26oZseawVYOYVg8aVnSZSe7yrxUJGeVs5KL6pomclgXNcqSj3KtDplHjyO7SoNylg/LfM7qvq56q4nlKzcF56z5MkLLTtDV0uUMVdCwEbZq4sAZHeeHzex0mzvfT3ga5GZVwcdHiSpW4XL2txSvvvuJVO1lTNBJy2TSo7pKZ/6ji+F0lajQsdxK9xHrdjOXJzW/9snUXMf5qDQa2forUO2k4cvZcVPndme/S8+nIatczLS2GBkp6SisFud0tV85Oo7rKpP98cE43F6ujpuGpitytb+WppVinTIQa24PxRNDAvHM5A5YPdQdchYkVOo4tm4+rtQjucxU+/jSG5FepEMWqztrutblOGjKdUitMNXMExtfUqZDSrmpRjnrXJeJLVNhhIbf8Z0sL1Xn9q+jrgRVe7HwpudRNu9v/LfxAyx47GHMmf8WvtmzB0tHsUjRuj3rOlbrUNfnnZX9Z4drzo6FxnxuOF+XmUlbcWE+tyzbiP2u8xh1wOE2d1rX9dt2po01A0Z78ruKIBtcAfmkUnDnslh3XpxCLrZmCxo9oxIQkvoTPtuUDelxUbjtG2wJfQgLbm5fIzGfYY/ioV5HsXZ9hnmEUYb+817H8F3z8PQfzv8ikcnEM7G7H/zUemjZB10Nmm14ol80eo66ATeM7Ib4q17EPxX8BB3Ofn4bunToilFTr8WwruOxhP3Fz/5kweG3JyAu7gpMmjiY/Z6E5SfF5kt5EX59YDAGj5+EYfHhGLRwH8wX1StxZOlkxEX0wOgpEzEwJgID521EgTBNqhx7Xx6ODjGDMWHSVeg9/h2cVlhqwUm6WSsxpccNuH9aL3TsfC2WnZUc/vy07jOxrpT156/Ho4MT0G/cVEzs1wP/3959AEZR5m0AfzaNFAi9BEindxQVVKRLURQPARUVVESQExX98PBE1LOLYjtFERQF1BMLdqUEkCIdAaWkAGkkkN63vt87s5Nkk+zsLhsgAs8Pkp2Zd+atM7P/zGwZv9zhEq3CSbp5zzz0ufxp7NOeCC37n8XlvZ/ALuV8kf6hLPdmzJh8OXpdMxLDeoYj9saFOKR0has0V31RpS3DcdvgQXhuTzq+e+BKdLn+DRwRen3vqt+qMeTj5wdkvQZfj+G9I7R6HcXCEZ1w8/J0bSUr9s8fhn6z1smcNSIeb46sXh+5XHfMXewnqlQsGdMXs9an4peHrkDncR8ixeP9xJHeNslYdH133PmV/V6dMpaXtByFD5KVuSKsfbgfblx0tOo+oo7bGEy55XJcPnQU+kW3xlUv7IFR2QQF2Pq07OPIPhg+8ip0v3osRvUeiAWO+5tK77hxNe4f4oZuo3HnP/riqqH90aV1T8x89wWM7nk5rr32MkRGXY9FSbIcV/uV3nHsqk2ObdcbL3fHjTfleri/BjcKQIvcQiyOt1Q5R6IgD6NfT8GMlUno9f5xDHvzCGI/zsEh9Ti1Ye/m44h5PgGDlx7HZS8dxmU/FNn7Wd0uGVM+S8Llckfo9/IRXLW+zF6n4iI88E48LlmcgpFvJWD8XuUgd5VXrprX1E8T0P7VZLyV4mx7R67HX7+vKuWvew8rDFPw4n2dUU9bZucDH6X7ysczT+dYlawWx79yqj4XuDzfKZydO6oFdVXpHQvSaZ83XOSlMcUvwph2PXDfN+mVwdiZOm95eoxWoT/mun1t1h+702F7vxlsy5rA9mVjbQnVmajoGBEZFS0iI6NERESkCI+IEG3DI8SAgQOFewnitX6R4s5vc+W0URz931TRIzRIhPV/SHx6sEgus4mDL18uIm79SuSo6zsqEqundxC95u4U5sKfxT0RfcTzB80i46vbRWS7aWJ1nhCmP+aJntHTxbpiubq2zjPbT4iUo3vF17OvFE1jpovV+TIt5V0xOPI28bVSjfy9YsPuHGFVijDuFnN7RIl7fy0Ulj9fFFeEDRNvHSxTUoT8a0lkyyoadz8pekXdJlaeULYwiT/nXy1ixn8hTqUsFEOCW4vbvsyUrZDZrr5PREdME2tlXYy7nhA92vxDfHzcpOZlPfWNuKNtpJi2pqBKXYy754oerW4SH6da1PUKN/+f6BZ8qXjhoNVFuXL7hm3FhE+OC4tshVVtiMYh72PvDhZRcv0sNcEkSkvtZZRzlm7aPlt06vqE2KOtat79b9Gl42yx3SxnZHsHBzcXN3x4TCizoniTeKRTKzHufyddprntiyptOSrevCZG3P6NvVZ6fZDmot+qUMeoubjxo+NavTbLeoWp9Ur5cJSIHrVEpCrLTbvEv3t2FY9uKVXmHFStjz0/nTHXGy91w3LpYsmoaHHT8hPq9p7uJ1X2Gd1t8sXBV68Snab+Igpka/c+N0L073uFGLfihNxou3is+xXiRaV/quQrxy2krbj9a3t78n6dKqIi7xdxsj0m2cfdW40RH6fY+7jgt0dEV9nHz/9VtY91jxuXbZP9GBIjpikHsazrgRf7iuBGI8R7ScooZYjPxkaIvq8cFDYX+5XeceyqTVX6UWe8drs5brwp19VxXpVNHN2XJnrM+0uELTwhPj2ppefliMFzD4kbdprs/WAqFo+8ekiM22cWxrRM0eP5ZPFxrlKq7OeiAnHHC4fFtAS5rbLdk4fF7X+a7XU6kiaiXkwXcXJIjv1+VEStyNfaaROlZpubvLLF4KcOiwm7TfJYFSJpa83tHbkbf90xqmATh+f3FeG3fCmytfnjq98VCxYsUH8WrU+rMp41jlX1+aCxiOjcVXTr1q3ip1Pr5qLvfLlvyVXcne/0zh169I4Fe16nd97IcJVXxK3iy7++FpPbhYsxSxLkVtWdgfOWso0nx6icK+dqzF32dfX6OmH9dbsw9pwsTDffKkx3TFCn9X5Md/xHhg8l2pZ0tigxYNvwcDUmjIiMVGNEJVbUuXzjjQBEjXsPe9P24u1+e/DwpT1x7/dZ8PXzhdVkcnLp3wqT0YaA4MCKK5AGOdXypvl4rV8cZv9nA4rUPzcdWPfj5RHdcUm/MXjmyGAsjXsDQ0O1tHKhXRCT/xkenzwaA/pNxJJjZSguNuP42h9xctD9mNjJ/jetIbApmoQAyRvXIqdRPlbMGIexY2/BE+uKUBp/EBnKH1lNr8KYAS1kvWS2nS9FO2Qjp0xu89t6FA2ejNER/mpePs0GYcK1fti9I7nyL0Ip5bc45Pa/FaPa2F93U7/3SPRvpU66LjeoF0YNi4Bv+V/cToRdNRxtfr0fI+5agNXHzKgX6PjaHvfpTjW6GhOui4SfMh18CUYPb4LEP1PsY6eTdtRdXzhpi5+ffV29Pvhjo36/1aDUa1SEVq/esl6N1Xq1Gn03Lj+0At8fFyje9jG+8b8Vky4LVDeprrw+Kr0xdzVeDpTtfH191UdP9xNH+tukIPba4Qj67VccKE3AT2t8MfKWaCSs3o3co3HYWG8ERrRzsrM07ocbrrG3p6HSHtspZMn2pGxaj7yrb8XItvY+bnDp9RgQpk5WoXvcuGtbkz4YcklDOeGHtl06oEWX4RgSrYxSU7Tr2gKm3AKX+5VF5zhW6bTJkd54oZ+b48KLcl0d51UZENW9NfY+Hou3I8rw8FuJuNd+OVEeJ8GY0Mnf3g/+gRjdwReJmRYcPVqMothGGN1IKVX2c0gIJrQ3YHeKdps1KAg3RPnZ69QiCO2EBVmyumGR9dHmyAmMWJmN1bkC9fwMSHaXlyx3VHt/eawCbaJqbu/I7fh7MEbKXSObufx2sUDpyUQcOnQIOz5/A5/sr35d0q7KsYpY3PHWCnzyySfqz7JPP8KcwU3V+ntE59xR87nKTu9YUJ3meWPPGhd5+SXjvYmP4NSsX/DZXbFwbLGjWp+3PD1GNd6czxxVHbuqfK7sBkOPWPlTAsOgivtBTvneMRwIcXgNCp1TOiGJh2xGKK9HrReoHnYqQ/0O+MdL67Dl1Wh888wSFHfvAd+tP2Fb9Xd2lR7A2k1GdO8dURk0qreeW+Kml+Yh5vMH8PIOx9t/km93/GtjOk6eOIrdX/8H12k7r6OsVfdgwPRNCJ/4H3z0y9eY00fZuQQs8uRktVV7zY+cs1lt8IkcintnTMe0adMw/aGXsezN8WitJBv8IGNeO4MMetQJASHzschA2PFA8VHSfQzqQWunlGmBT0BA5UnMYoRRPQrdlBvQAKFV79fUENB9NjYkrcGjbeIwo0cH3Pq/qrfZdNOFDTatE4TNWvVg9wtEUEWXWlBSbIKPv5+93U7TZMvc9YVuW/T6YBya6vabE3715BOaNq3VyzfAHz5Nr8U9w7Px1XfbseHTLQi/+xZ0rdxN9emMucvxcsrT/cSR6238Oo7CCP/1+PXn7xEXOAq3jhuB8P1r8OOvG4EhI9HJWft8ZHvKDzAfX9jvmgqYjbKfAgPtT5gKS1nV14Cq9I8bt20zlJelTMv/cj+q7FaH1uvsczlOj2ON0zY50h+vSDfHjfPzh0anL/WPc+cMct1/jIzCluv88c3aXBxSby8aEFSRAdTXF8oilOxhscr22BerlGKVP8Ds/Sz3i/I6yQW+WtcGtGqGDbMj8WhoMWa8kYBb91mUlyi6zks2KFTbIZxtX8mD8Xc7Rga07tkTftt+xnb1ucEHHW97BQsXvohxMeoKHmkQ3h29evVSf3p264iWwVX3VFlRF+c7nXOHtqQqvWNBc1rnDeUc5yIvEYTGjc04ui8ReVUq7II35y1Pj1GVB2Puqq/dkUGg79NNYRibZ3/t4ljnHz3hO+1G+Ay7TJujuuD8+PCAcgKypm3BlpPtcEnH+ji18WusTSt/Ma8FRqMVfvKv59BrZuLhDj/j4X9+gvjyF9ea0/D9Y/fj05Yz8dCgBvZlDgxht2DBczFY8erPMAdoCzV+fq6e+a1I238QAYPuxqRhvRBp3Il1+5XP6/FB+BV9UW/dUqw6bj/5iaI0pOcb0ObSPvDdsQ1FXQdj2LBhGDa4J1q3bIYmuj1jQHi/qxES9zG+TbbnZctaj89W++Kq/tH2g0dlQFj3brDFrcSGLOXwEcha/zlWZ9jTTr/cqvLTUlDUsAcmPPs1vn4iArt/3Vv5ej3JWXppk1ZonLUHe04o9THi4C9xSHY8a2VvwbebstQxtJ1cg+U/CVx5TTv7TuI0rT0iPeqLcj5y/GwoKVWuIuj1QXN06qHXb05kb8V3m7V6nVqDFbJe/frHypIaoP8dg3Hqi9fx3qbWmHiT/CvWvoUDx/q4cjb3E0dutvHviutH+CJuURwCRw5FZOsBuLbhFnzwdTYuG9Gt2uvCXLHvm9a4L2QfKz0ncEr28ZoafSzro3PcnH7bdDjdr6Jxwulx7GnO+uPle8LVcaN3/nBVrqvjvKpTRwuwtkA++apzQg0s/fx9oJ7iSkrw7TH7Z3vaioqw/DBwZXQAIiOCEZKUh2/z7FvZiovxWYIBV0X5u6xVfoEZRfKPggnXhuPrwf7YHV+GRqeRl7PtK/vpzIx/yDUPYlbHn/Hg/R/iYLG9TsoYyNjECU+P1Up+bs93jueOtRXnDpG8EStWrENClSujeseCOqlD/xzXra+LvKzNMeHDzzB271QMV14z6Fhn1dk8b+lxPeb+Lvvag/paTkGY12kzsrRRBTC0r7q+Eiz6ThujzVFdOe1dp9zMHq3Rusts5Nz7LG6PkDt9xv9wZ7vGaBIWiYhWYbjyNX88NP8uxAR0wUNfrcTk7Hm4rEVztI1si+bNu+HBI2Px2TePoFt5UFjlTCN30Ntfx7zoZBwuc0hwezbyRafRY9FkxRh07NwZ7Ud8CZ8Oyuc1CARd9RQ+mpGPf3ULQ7uunREeOxFfyKMxZMBcvDX2IKa0b42OMliJCuuDRzcU2LPTEdj3CSyZWYg5Mq/2XTshvOMMpE9finn9ql4yDx06D/OHbsOkDjHo3LUDBi7yxSWR9i73plxH2V/djujmMejWoyOGLAjA5OnXyDCpkrP00JgJeGjYQczq3R5du/XGjP3NEe3Ypy2ikf9aX8R2kW1qPwUHb1mIJ/sHu0zztC/swnDVsJZYPa0vOo9agNRrnPeBq36rQdYr7/Wr0UmWHdlhKg7e+h7maXUOvGwSxpX9iH19puA6p7cLq9bncI2Tc6WzuZ84cr1NIHoOvxTH1p5Cv6Ht5OEQgcHDfbAzvgtGXlp+b8szocOewvwhv+P22Ah07iL7+ANf9JbHcXV6x403bXPK6X7VQPc49pTeeLk+bvTPH654ur+KwgLc+cohNHn+CCKeO4wrNxnw0KhGiFGOwZAA5P+WhNgFCQifn46DPVvjySgfBEY0x5IrbZjz+mG0V9JeO4H0K9pgXoTrU3f2gVREPxuPbm8kYIgsZ3LfYDQ/jbycbe94fjkj4+/fCTO//AZTi57HlS0bo1VEOMKaxODuTa3QvW21qwXOjlWl32oMTeVVfIMH57vKc8e9FeeOnG0L8eraEjSr9moWvWPBFb390G1eoVfi6W8X48pfJ2LknA2oeqPu7J639Lgac9d97UF9/ZrDt8MXMDSfDEO9q2B9vBdEfOWfwcoVRr9X7tfmqE55+0aY4oyj4ujJ0iovlLWW5Yq0pARxLCNPlGmv8a5kE8bcNJGUkCTS84xVthPCIsqKikT116TbjMWioKhMfWF2xTrqC2ursZSJYrle+Wu1raXZIuVYmsgz2oS5pFCUOLyS2FxwQiQlJYusEscKyrrlJIuEhGRxqlirhJpnaUWewmpU500OFbcUZsj2HBWZRQ4Vr1YXuaEoykgUienK2xeswljs2AYPynUk61BSXJ63RRSfOi4Sj50Q+UY1tRq9dLPIT0sQSZnFwmouFUWyc9SeSFlof9F5dqnIPp4ojmeXVY6RqzSNfl9Ub4usV+ZxkZJbXiknfaBy1W+a8r62lons5CSRnFOtXsZdYm7PTuKB9corzPU41MftmOvVtZKlrOr+pnC7nzhOa5xuo5DrFjmuayoRhfLAqdjUcR9x2p4Sh/bIPj4h+zhN9vHJFeKmyJFiSbqWVI3z40anntXLNZeIIoeD22osEkVGmY+b/crpceyqTVWOD4Wz8XJ33HhRrsqD/VWymi0iLccojhXK81n5tsobWl5MEV8X20S23A+Py8eKbDUWo1kkZZlEpqxTBatNFCt1LF9kU+atWp3kdJFJJObK4736LuRJXi62d+TR+Nfoq5pM+SfE0fh4cSyzsHK9GuPpeO5w/pxhlcdfkWO79M53ah1l3jXOHaXit0cHirtcvGmjxrHgtL2enTfc5WWTx0p+obO+q+V5q/o2eseoE7rnJr2+VlU/7ztnKzkgbIXb1Te6KG94Ud74orxJhs49vTfCGJSgUZJ/sQn5X7l1ojwCsbExWB8Xp4WWdMFLfQ9Drt6IB/Yux5jqH0rtKu1vyYKSggIkr5yK0Uv748d1D6K9w+vFSB7ux1bhzbVNcf3oLmgi0vHjv2/BnFOzsXXVnWijrXPWnXf7Ve0Y5vypTZ2fxAtdtakLmEjA8keWoenjT2FEM20Z0UVo4KBBSExMVN9rov4o1/CVRwaNpEr5ANcN34z7Nn+IG6p/FJartL+l43j/xiF4OWsonvvkLUyIqfmGqYveiV8wb8ZcrNiRgiJDI3Qa+QgWzJ+CXjVfYnz2nHf71VmSn4vrlpTgvmltcMNp3t0nIjobGDQSERERkVt6QaPrV1MTEREREUkMGomIiIjILQaNRERERORWRdAotEe7qnNEREREdJFRwkHlbS/2OV5pJCIiIiL3GDQSERERkVsMGomIiIjILQaNREREROQWg0YiIiIicotBIxERERG5xaCRiIiIiNxi0EhEREREbjFoJCIiIiK3GDQSERERkVsVQaNBe7R/V0zFHBERERFdjKqFg7zSSERERERuMWgkIiIiIrcYNBIRERGRWwwaiYiIiMgtBo1ERERE5BaDRiIiIiJyi0EjEREREbnFoJGIiIiI3GLQSERERERuMWgkIiIiIrdk0Kh+b6D2u1zVOSIiIiK6uPFKIxERERG5xaCRiIiIiNxi0EhEREREbtVZ0GiY82fFDxERERH9vdVZ0Che6FrxQ0RERER/b7w9TURERERuMWgkIiIiIrcYNBIRERGRWwwaiYiIiMgtBo1ERERE5BaDRiIiIiJyy4dfM01EREREVSjxYbUYkVcaiYiIiMgtBo1ERERE5BaDRiIiIiJyi0EjEREREbnFoJGIiIiI3GLQSERERERuMWgkIiIiIrcYNBIRERGRWwwaiYiIiMgtr4PGzzZnY1mqVZtTCBz6KxuvHShDqbaEdOTnYOhLqfimTJs/m/Jzz11ZREREdMHSgkb798RUfFuMB18t2NGYj8fWFCJFm0dRAeZ+l4+SZvUQpC0ifR50MREREVGdcoxXvL7S2PvyZrj6RBbeOG6TcwI7fs/G/tjmmN7KoKbbzFYk55iQXiYqC7QJFJsFlC1UjvNCoMQkYJHL8oqtKKpYqZKwWJEq80x1zFNyWlZ5fvIxv8CMdKOWIvNIyTUj22KfrVwPKCkyI6nAhvIklUwvKDAhMd+K0vI6OeRdVGjCsWKbVq6A0WxDmWPdbTYUycwd6+uM0zZozGVmHM2zoET2jala/q62q8pe1yTZsdW71mK04GiuBQXlF47L21dtLGqsR0RERBcNQ1RUtAwR5D8ZcQj7L/Uxtl0s1sfFaas5I7A37ihuSGmCrWOA+9/NxcC7o/Bwc7l8cwrGrCmDX6gPSmWEEdanLX6+rj4apmaix0oDPp3ZAr1kuGpJP4menwl89FBLXFaYgyHvFSKyjQnfJfph1rRozGmhFSXLOrIrDaN/LIYt1BfmYl/MnBqNWc1sumU1U27LvpePFmFW7Dslg818H9w5shGObslFggzkUoyBWDA9Evf65qrltou2IC7FBmuJBZaIFvhlYhN0shbjkYWpWGn2QyNhwan6TfDl3c3Rr1TZpgDh4RZszxDIlQFd9KAoxA3wwcL3j2H1ZTH4/hI/td771x/DbfnNsfnG+gi1N0a9PT1kYQkeeLAtxgS6aIMM77auPY4xm0xoKNOsgfUQLes35I4Y2TeutnOg9oNW10xZVxkwt+4fhY1DgxAs89/zWwpu3GBESDBwylQPT90dgX/Ws/dJ5VhEYsRhJ+u1sP+BQERERBeOgYMGITEhEQaDfJ6XP8qj8lOLN8IY0Eu52piehenf5uB45xa4p7kBJjk/aaMP/vNgByQ83B4pj7ZBl/3pmJtY/fqWE6VGlHSJQsaT0XisubZMsp7Mxp2/WPHAtA6If7Adjs6OwGQZgbktq9iMhv2icGBWe2we7IPFvxRj9F3tcPDRWCyOMmLJn0YZ1klFpciICcdfs9oh8bEIjMs6hSf/ssiYzxc33izLeyQWfzwciSnGXHyoXlmVio2w9ozEnw+3w6HbQ3FiWy62WgIwtk89/LWvCGnKOlYjPt9nxYjeIZUBYzWu2mCWafdt88X8hzrgiEzbOzIAGfnut6uhqAymHpE48JCs6x0NkbMrD7+b7XncvdUXC2QeB2UfbbzKhgVrC5GlbOMwFg+bXaxHREREF4VaBI1SSAPM6euDNYm+mN7fHhglHy1GUWwjjG5kvwrlExKCCe0N2J1irnFbtAb/QIxq7w9fOenjcBHreEIhTsY2wUQZlCoMfr5oEuBBWUFBGNJayc2Ati3qoUXL+hjSWFnXF+1a+sFUqt2KDgrGhE7+UK4NKnUY3cEXiZkWWOrVQ0xZPh7/IhkD3knFklz77XSVzPuGKD+ZM9CwRRDaCQuyZCDWtnNjXH4qD9/nybgyJQ/f+DbEpLYOjanGVRuOHytGXmRDjGxoT2vQpgEGaNHnafVzcDDGRNvrGqrUVbY6R9ZVySMn0IYVq1IwdlkqnpABZ2mWERlKEx3GIlXWQ3c9IiIiuijULmiUYUi7yCCENQpCv4b2JcodbovV4XWLklKIj/ylhjcyvTxNuQ1eJcDx9UGoGrlVZZErWZXb5tp8ObdlyV8ySzs5bZCRqBIEqbPqChq5PKg8QVJez+cj53P+SseAb0oQ3qsFPro7HHPalmcmyQz8HPL2Lc8vuD7u6WDFVwdLseEPue2lDdHVYbPqXLVBWe7r72MPZhU2gTLt9YRu2+7Isa5S+aTMDj6NQ3BvvyaYdkVjTL+qJZaNDkVrJdFhLFyuR0RERBcFh1DizAiPCEZIUh6+zZORhmQrLsZnCQZcFeUP/yA/NC4pxZ5CJUXg4JFiJNtXcyk8PAj1EvOwSstTmMxIL3NdVo3AyZWSEnx7zKoGpbaiIiw/DFwZHYATGUYExDbGpPaBiLSWYV1GlRBXhw/69w7Bqf3ZeO+YHyZ2DXBZF1dtaN0yENbEAmwoVpNwKikfa4rs02ei7W3aBMI3tRRFLUMwrH19DIsNROv6fmhSLQNP1yMiIqIL1xkJGh1jh8CI5lhypQ1zXj+M9gsSEP7aCaRf0QbzInxgaNIQD7UzYtab8ej6eiJmZPoh2oPAIyiyBT7qa8O/FhxGOyXPV9LwhQykXJV1WkICkP9bEmKVPOan42DP1ngyygedOoeiyd5kdHwtAe2XFMCnmWf5BrZthHGWQuxr2xjXNdAW6nDVhtD2zTG/XQluf+UIOi+Ix8AdBvRu5H47T4VEN8db3YyYMv8wOr6RgKjnk/Do0ZpvjfZ0PSIiIrpw1eLd0xrlI2WsBgT7V31XjdVkQXKhQEgDP7QIcIwMlY+wMSPbxw+RwQaUytgjSNnWJlBiAQLktJ9OIKl85EtKiUBofX809dcWSk7Lqp6frGexzYAQLXOb1YZSWeOQolwMWViMBx5og2tMZhQF+CNc1qu8CjaLFelFAg1k3iEyD7OPD4IM1fKW/VViFvD394FcJCtUhif/m4q80TF4M9pJEOekrfr9BRQXmpAp/BDhW4jxb+dh9P2RuEsLRl1tp6pellpXyLoa7HWVTKVm2a9Aw1A/NFMW6oxFjfWIiIjogqP37mmvg0bDnD+1KbpYiRe6alNERER0oTjjQeMFIz8X1y0pwX3T2uCGWn+VjRnvf3wML5eE4LnxYZhQ2xf9FRZh3qqTWJFqRhF80aljUywY1Ri96mnpRERERGcYg0YiIiIicsuDD/eWASMRERERURVKjCjOzLuniYiIiOjCxqCRiIiIiNxi0EhEREREbjFoJCIiIiK3GDQSERERkVsMGomIiIjILQaNREREROQWg0YiIiIicotBIxERERG5xaCRiIiIiNxi0EhEREREbjFoJCIiIiK3GDQSERERkVsMGomIiIjILQaNREREROQWg0YiIiIicotBIxERERG5xaCRiIiIiNxi0EhEREREbp3XQaMoPYnD+w4gOd+qLSEiIiKis8EQFRUtBOQ/5beQS9RHgdh2sVgfF2dfy4lVT9yFVekGbc45IfzQ+c6XMHtQY23JGVSyDU8NGIqndxbBL/xWrNi2AuPCtDQiIiIi8srAQYOQmJAIg0HGefLH/iAfvQ0al4xqhHt+ytfm9LTFXT/ux5KRjbT5Myj/Z9zb4zp8kGwD6g/E23vXYkascuHUipITf+K3H1bi+7yheOHRa1DfvgURERERuaEXNHp9ezo46nIMHjxY/Rl0dRc097MvD4m+omL54MG9EOYrg7qzoeFwzF/1CZ6ZPQdvfrUUU9SAETDteQZXRvbEiHufxQ9JFnUZEREREZ2GKjeT7TNeX2l0ZD7wHK7s8wR2GoGmY5bjwNe3oZWWJqwWWJV8DT7w9ZWBnakQOYUGhDYJho/VCltFmi98Kipog9ViTzP4+MHPt0rNKyh5W6wyKFXW8ZN52ywo2vEk+vd/AX+YDYi+71fseWcgQuALv8rMiYiIiEiHeqUxMVGGijJ2Uq802q82en2l0ZGPkpODijnLfrw8oAXqh4SgUZepWLx0Ji5p3hjNO0zE58n77Gn16yOkwaV4cleZtpGMK/94Hv0ahcjtGuHSJ7aiRFtehWUfXry6Keo3aIDQjtPxa0EufpzaAc2vegn7zMoKAsc+GIkWgQ3Q+Z9r4O5GOhERERHpOyNBoyum0mIYTSaUGhPw2fPvY2+BVYZzUkB3jJ94KQJlmrnsMH756TBM6hYWHPn5exwoNsPk0wk3jbsUwerymizGMpjk9kaT/d3TQlhhtdrs+SvzNivMFq08IiIiIvLaWQ8ay9mOb8T2kMl475fN+O2TKejo64vYm6ZgaAsltQx//fQrEpSXIFoTseaHAyiVkyGX3orx3espKzhVNRhsjFELD+PU1n+jp78yb0D01J+QWZyH/a8PQUN1HSIiIiLyxjkLGhF4KR5d/DqmXnslrh41GpcpwWLYcEwZHalWouTAj1idaIYlaTW+/6NYLglF34k3oZMaAHrGxz8QIYHaO3Ik4eOPoKBgBAWcu2YSERERXYjOXTTVpDN6RwZqM+UaY8CUW9BFCQwL9+CH1UdwZM132FUg55tcgztuiDmHFSQiIiIiPecsJjP4BiDAV5txEHzpHbjzshA5lY+9P36JlT/tRp6caznkToxoy3c8ExEREf0d1P2FPP8uGH/PNVC+MybnUBzi/syVEWZbjLhzCFra1zgtPoEhCFbvUAvkJRxGhsWK0hIj3wxDREREVAt/g7u/BkSOnoIRYQZYj67H+iQrfGNuwB3XNNHST49v845o18R+hTJv9Qx0CW2CS2dvhHLHm4iIiIi8c0aCRqF8eLZ/AAICAhFY7U0nAUHBCJBpQfVcvKOl+VDcO7adzEXhj47/mIh+oeqMS34B9WSZslx/h/veTUdh3iuT0b2hUg8Bc2kJjPZP5CEiIiIiL1X7Rhihfo7N6X4jDIRV/WYWZXODr1+Vb19Rv7VF/WoXGVj6+VR+8HcVeVgzvQ9GLEyEtd4leGrrFszrrf9RO3YCNqsVVp28hakAJ9NPotivMcJaN0XQ3+CaKhEREdHfXc3vnj6D3whjD9r84e/vX+Pr+pQgUlnuXyNgtKE4vwAWWJG/9U3MXS4DRrm02bUP4u5e7gJGhQE+unnL1IBQtIxqh5i2DBiJiIiIaqsOwykj9r00AM3qN0Dzq+bh90K5qNEA/N8zNyO8egRIRERERHWqbq/BWYwoLi6FWRgQGDkST638DI/20vvSQCIiIiKqK3UYNAah77NbcTzxEA4nZyE38UfMG9KqjqNYIiIiInKmTmM0Q0BDtI7piA7hTRDo5IO/iYiIiOjvgRf2iIiIiMgtBo1ERERE5BaDRiIiIiJyi0EjEREREbnFoJGIiIiI3KoWNGqfqs0P1yYiIiIilVB/80ojEREREbnFoJGIiIiI3GLQSERERERuMWgkIiIiIrcYNBIRERGRWwwaiYiIiMgtBo1ERERE5BaDRiIiIiJyi0Gj1+wfdEkXOGGB0WTlaBMR0UXP+6Axfxc+XfAKXn75Zbw8/w0s/nYPMk1a2tmQ+h6GRk3EN3navAOR/CHG9rkLX57UFpxtpevxz/ZX4MVDNm2BGy7qfrac8z45V1IXnrO+LNv7GkZEh6FN57vxTa628AJwwe4bRER0VnkfNPpmYe2bH2DDsVSkxO/AZ/8aim5DX8G+MxY4puKrmWPw6Pc52rw+Q8Ne+Mfd16NLfW3BOSCEhwFjHamLPjlXzs1VvwKse3sxzLM2ITP+Q9zYSFt8Aai6b3h+nBER0cWtdrenbaHoP/N1vPXeMqze9B4GH16KLw5aAEsZikstqAir1Hmzfd5mQklxGSzCgqITSTh2qtRJECAgrCak/rEfJ0qLUCjzqlzHvl1SZkll/g264qZJ16F9kDZvMyIvLQlHTxTArBNhiLJcpCYlITXPWKV8W2kWkuXy9HxzjXqZ89Nw9PhJFMsmVmcpPIGjR0+gwKwtcMpJ3TU1ti/vJ6tsy6ksFGllelaO5NgnHvW5RphRkJ6ExNQclFq1ZU6cVv+5K19nvFyNhSNP+sRlvar1sV0RMtNL0aCBH0plpXyE83Vd5isf89OOI71QW9mYi5Sjycgu02mNs77X7TsrjCVFKHOss6UURXJBjdyr92/FvqF/nNXoU1GGgsKzeSuBiIj+Vgzao6OoqGgRGRUlIiIjRXiE/AmPEG3Dw8WAgQOFS4U/i3si+ogXDlnVWVvaR+L6VleL1xNtwrR9tujU7Qmxx6ImCfPuf4suHWeL7WY5k7JQDI4aLiaN7y06d+koWoU0Ev2e3y3K7Kva2Q6L14dFiBYNAkWDlm1E28HzxaHkhWJI9Agxefwloku3jiIsJFRc+uTvolhZP+VdMTjyNvF1rpw++aP4Z5+2Irpzd9GxVbgY80m6soYDozj84S2iQ9OWol33riKy1TXi1SM2ubxY7FkwSkQ2ailiu3QQrRs1E5c+/Is4pW5TILY+c7Vo0aiN6CDrHNt3tBjc4TLxwkGl7UVi9/zhIrxZhOjUMVw0bTtSvPWnUd2qgmyzbt31tlfaFDVS3DW2g2jWuJ94/s8C9+U4cuwTT/pcUbhOzOoVJiI69BQ9YluKsCufEluKtLQKXvSfq/KdjpervBza5Unfu8urSh/b92WZIBbfGC4aBfmLwNCmou3oRSK5xrqFbto7VNx6Y2/RtVO4aFi/i3jgnefF9R3biU7tWoiQlqPE+4nlZWn0+l6v72zx4vX+bcR1H6XZtxcWse+Fq0S36b+IfG2Jyln/lvdhjpPjzOa8TzNW3CSatpTbZGv5EhHRBUuJAZVYUIkJldhQiRGVWLF2QWNUVzH20dni0X/eIQbGthX9n9mqPmGpQWNXF0FjSFtx+9eZQgk18n6dKqIi7xdx9gjKwVHx5jUx4vZvsuyzcrshwa3FbV/at8tffZ+Ijpgm1irbOQQSx94dLKLGfyHsW5lEaalWCY3lzxfFFWHDxFsH7SGTrTRLZMsnZ+OuJ0SPNv8QHx83qcutp74Rd7SNFNPWFAjj7rmiR6ubxMep9rwKN/+f6BZ8qRo0Gnc/KXpF3SZWnlCCAJP4c/7VIkaWbw82NS7qrru90qaGbcWET47LcMAqSnd6UI4jhz7xuM/z94oNu3NkaZJxt5jbI0rc+2uhmlTOm/5zVb6z8XKdV2W7POl7t3k59LFVbXi5dLFkVLS4afkJtc7V1y3d4a69MWLa6jyZYhYHXuwrghuNEO8lKQdAhvhsbITo+8pBe77l9PreRd+lfDhKRI9aIlKVbUy7xL97dhWPbilV5io4PR4c941qx5lun1oLxMlTxVXrTEREFyS9oLHW7572CwyE5cQBJDW6GXPv74tQbblLjfvhhmtaqFc+G3a+FO1sp5BVZk+qzs/PX5uSml6FMQPs24Uq2yEbOdW2C7tqONr8ej9G3LUAq4+ZUS/QV0uxO772R5wcdD8mdqqnzhsCm6JJCJD823oUDZ6M0RH28nyaDcKEa/2we0cyjv8Wh9z+t2JUG3te9XuPRP9W6iSSN65FTqN8rJgxDmPH3oIn1hWhNP4gMqrff9apu8vtg3ph1LAI+MIHqZs8LEePJ30e2gUx+Z/h8cmjMaDfRCw5Vobi4qr3fL3pP7WKOuU7Gy+3eWk86Xu3eTn0sU+1o0Gpq6+vr/qochyPzW7ybdIHQy5pKCf80LZLB7ToMhxDov3kfFO069oCptwCVLkb7qrvdfqu7ei7cfmhFfj+uEDxto/xjf+tmHRZoH0bjbvjoVz5cabbp2iA5s2CK/uCiIguOrV8TWMQek2chwUr12DhZavx0JwfZCikETbYtBdICZu16mv4fPzgV16yjy98Pa2FQW5X/pxnkE/y2qSjgO6zsSFpDR5tE4cZPTrg1v+d0FIUAhazGVabrdrrvoSsow0Wk6lKPX2UMmQhVrMFPgEBMljQWIwwqs/4AjarDT6RQ3HvjOmYNm0apj/0Mpa9OR6t1RUdOK27m+0DGiBUjc1Ooxw9HvR51qp7MGD6JoRP/A8++uVrzOlT/iLRct70n8EeaOiUX3O80t3npfKkTzyoV0Ufe8BhPNzma3DoY7nA4O9Xsf8Y5DrVuex7vbFrei3uGZ6Nr77bjg2fbkH43begqxKXOnB9PFR3BvYzIiK6YJU//XjN/gTYBCOfehJdf3gY89YVwK9JKzTO2oM9J5SnVCMO/hKH5KpRhgd84OdnQ0mpUZv3TH5aCooa9sCEZ7/G109EYPeve1GopSnP3uFX9EW9dUux6rj9Oo8oSkN6vlze72qExH2Mb5Pty21Z6/HZal9c1T8Grbt3gy1uJTZkKe0RyFr/OVZnKGsZ0ObSPvDdsQ1FXQdj2LBhGDa4J1q3bIYmHvWsp9vrr9cwdSNWrFiHhOpXDU+bFWn7DyJg0N2YNKwXIo07sW5/kVzuGOB403/RVXKoruZ4/YFGHuXlSd95Xy/XznS+nvS9Mw3Q/47BOPXF63hvU2tMvCm2xhaujweF43Hmok9FPjIyi6sEyUREdHGpXdCoPEOVB4Mtb8aLT0Zj5UPP4/dWE/DQsIOY1bs9unbrjRn7myP6tJ9Jw3DVsJZYPa0vOo9agMMeBp3ZX92O6OYx6NajI4YsCMDk6dfIp9ZKQVc9hY9m5ONf3cLQrmtnhMdOxBdZAoF9n8CSmYWYI5e379oJ4R1nIH36UszrF4TQofMwf+g2TOoQg85dO2DgIl9cEmnvupABc/HW2IOY0r41OvbohqiwPnh0Q4Ga5glPt9dbL2fbQry6tgTNqt6V9IIvOo0eiyYrxqBj585oP+JL+HRQPpOlasd703+uOBuv5h7m5UnfeVsvd85svp71vTOBl03CuLIfsa/PFFynvWTCkbvjofpxlnqN8z7N+GwSuvSYgm8qbiUQEdHFxqC8EUbIJyeh/Faeo+xziI2Nxfq4OPtaTllhLC6DCAxBxcukrEYUl5jgE9QAQX4WFKQfR7ZfGCKb+KDU7IugIH/4yHVKygQCggPhpwSSykeKlFrhHxwE/xqBpRUlJ9OQE9AKbRsIJ9vZ5HaB8BcmlMo0/6B6Mk1uk5WGjOIANAtrhdAAe07VWQozkJJlRmirNmgaVBk7W4sykZxZipBW4WgRUnFDWrKhOPMYMm3NEREWAltJKWwBsu3q7UABU24qUnKAhmGt0SzYcTvJaZu1uqttdrJ99W1U1dczY9P/jcSSq1diyY1NtXU0soyKPrF53ue2shykZ5ahQVgYQqzFMPvVhxy2Gk6r/1yOuf546ecFmZcy1soCN32v8ahe1ViNRTD5aO3XWdejfC2lKLYEIEQ7UGymYpQiCCEBVf9mc9r3Pq76Ts6bduPJyyci742deHNAiJpPVU7613HfUNvicJw1UlZw0qfKR+4U+SC0gc4BRUREF4yBgwYhMTER6guuDPK3+iAfvQ8aqc6JBCx/ZBmaPv4URjTTltFFwoKSggIkr5yK0Uv748d1D6K983iZiIjotOgFjbW7PU11y9AOE19jwHhxSsOyOy7H9Yub4dkP72fASEREZx2DRqLzUiSmrkpAwuaFmBDj5PUDREREZxiDRiIiIiJySn3pu/abQSMRERERucWgkYiIiIjcYtBIRERERG4xaCQiIiIitxg0EhEREZFbDBqJiIiIyC0GjURERETkFoNGIiIiInKLQSMRERERucWgkYiIiIjcYtBIRERERG752L9O0P6dgkRERERENRl4pZGIiIiI3GPQeJ4yFRfDrE1X5yqNiCqdL8cKj2ki+js4I0GjMXUbvlm2BB9/8Qt2pZVpS8+sU9tW4P1Fn2HbSW2BK2UJ2LY3C0KbVZT+9T0+eP89fLzphLbkNPP8OyndjGdmfohkxwaWc5omcHDRFMz6qrLtdSH/j6/xwXvvYdGSX3D47OwmFWoztp7WM3vH57KM5dhywtlA/M0Vr8XcW17CNqM2fwadN/3i6jjy0llpe416CphyDiPu0++x38n+6excpzAlbcD6hLMw4ER00ah10CiSFmHaE7+jYffL0K2NL/JzS7QUFwp/wpzHvkO+NuuJxh0vR9P4HUh0ey624tDiZ7DsmK3KKzUDAw5j8cwn8UtWkLbEgzxd1dOLNpwpaas+R+no8Yh18lJU3TRjMUqs2nQdaRDVB/0H94Ft305kn+WX0Xq+v9TkaT0bdbgMLRO247DtLDbmrO1nBpiMZVX+sDpTzkm/nAE1jpUz0Ndno+1V63kSX/5zBG558n/4ccM+FDopxtm5ThEQnI5Pnll+RoNkIrq41CpotBadxJGd8Wg4YAg6NGuCVh2vxMBuTbRUgbITB7B5wybsTy+tfHKylaKwyASYS5GblYG0tDScKqoazVgLk/HHpvXYevAUyspksGMB/BqFI6y+gM2UjYTtG7HlUJbz2zWFcXjn5yhMGtVCW2BnaBqD6EbNERNZX1viJk9X9XSRZi7IREZ2CSzmbMRv/w1b/8pEWbWTtPHkIWzbtBX7jmejsLR6K2S/FeSjzKbNVmc5gE/XhuH2au1T1UizoiT7hKxfOkJvmo95A+rDdBp1MefEY/tvm7A3tRgV1bEUIzszS66bj6QdVfvMXdt9GoajY/twNPR39qxlRVH6X/h90+/4K6NUW1bJ2T5h53w/82R/cdo+yXU9BUrS9mHLlr1I9w1Dq/qOz9o6+7xkzs9AavpJFMhK2AqScTD+ZI39ogZX+6C1BDkZ6TiRU2qvu60MeZlyXva/0c04iLJcpOd2wMx3H0SvAG2hA/2+1u8zb/vFndOriw2lORnIzD6FxN27kFRgRVnGAew6lA2HzeyqHysenJe8a7ur7dydC6Qax3QLjH37F3z19n24tH713OycnetUrW7EpLBVeHezB3/YExE5UYug0Yj4X5fi898zkb17JRYvXozFH69FkjzvAkXY9uI4jH9uDVJz0rBOTo95ZgsKZYotfROWLtmIjJwtWPrO++p2S9cmVTyhZ69+DOPuX4p9OQVI/uVp3Dx4HF7bqd2D8c3E8gcfwTfH83Hsy1mY9OpeqMU5yNu0Eoe7X4ce1Z8MG0QhJkr+tPLTFmh08nRVT/20XOz5aiFmP3Arxt8wCyvjM3F89dO48cYXsFM7Tx9bNgW3PvMzjuVkYteH0zDo5veRZE9S5X03CdENW+CK/+yt+UQnZf+yFEn9b0dvJ0/2NdJMSVjz8WIsWbJE/izC3EfexF6HTPXrYkXSJ3djzKyvcbQgCzv/eyfGzImTrZOjnrgaC+fMxE3jp2JFYh6Of/UQJr6wS+4N7tuurxSbX74Hj36wCSk5qVj33GTM+r7yvrL+PqG/n6l09xf99rlWjG0vjcPtL2+UAeAevHv3bfjvofInbld1yccfqz7E23OexlvvzcQN9yzEhh+ewb0v76yx/zpytQ+KjK1487HHMH/ZBiTLMVXmP31rDmY/+zV++ML1OOTs/goffbgYL/zrLWyvdrdSv6+VPrtLp8+87RfXXNfFyfiZk7Fh0SMYN2w6lu7eiJemXI/JT63BrmWz8PgP2Wqe5aofK67PS9623fV+5u5coHB1vOvSO9chGJcMj8SOL3eAYSMReSUqOlpERkWLiMhIER4hf8IjRNvwcDFg4EDhidyfHhePrszU5uzM+18V98zbJAqsFmE2m4XFWih+f/Y+sWC/2b5CwY/iX7O/FXn2uUrG38Uz97wu/tJWU6R89oR4Y1eZnCoTm5+eKT5KtdkTbEfEK/e+KA5qs3Y2cfDVUWLcRynavCObKMnNk7k4cpLnVIc89eqp0EtT8rjhDvHFSW1eylv7mJi68KicMos9L00Ws1cdFJkFZcJiOym2/LhD5NpXU9ky48SrjzwpVvxZpC1xYDsq3p/6uIgr1OYduUpTpYslDzwttpm0WVd1yVguZjy4SmSp6ynM4tAb94gnfiuW0yax4/kZ4t0Eiz3JFi/eefAN8ZfSZy7bXi5TfProf8TmqgMh2URZdopIiE8SJ+IXiwfmbrKPlYt9wvV+5mJ/cdm+cjXraTn0jpj5ys7Kfcj8l3h1+E1iUZqcdLfPyzJ2PDlIjHxpu8jXlnjExT5Ysv15MXXBfpmzIl0sf+Bf4mdlRY/G4ZT436NPiQ2l2qzC1fHnos9q1y86vKyLaeezYsbCY3JZtvjfrH+LtXJIy3a9Ih7+IMm+qkLvWNHray/b7no/c38ucH1My/3zEWfHkcLZuU5z9C0xfMTbQukhIiI9SgyoxIJKTBghY8OIyCg1Vjwjb4SprjA5HSd2vIbJ48ZjwoQJGD9uEl7enY2Tx/K0NXRkxyMv5grEOvyB3HbCfzDzknranC/8/bRbPwaD8l+5M+RAwGaxwcfXWbMMCGrUEOU5VaqWp/J4OvfPnDA064iO5XfppYbtYuCTcRIm+KHXrPmYiDi89/T9GD9wDOYf8YG/tp7C0GIgZs1/Grd2CdGWVCrevBS7et6Ja6rddVK4SnNOvy7G48fg26M3mtpXlPwQeXk0ChPsV2sMcr5eoK86DYMPHLtbv+0uiBP4cupA3PjY+/jy+1X4aMlapPloY+Jin3C/nznfX9y1T0/u4eMI6hBZuQ/5xeLKfm3gI/P0aJ8P6YVbbrsModpsbQVddjcGxi/Gjzly/Lcuwsb2kzC0oT3Nq3Fw0deu+qzW/eKMl3VRqQNdqerc6R8r3rbddT3dnwtO/5gup3euk3x94WO11rhNTkTkibMSNDbq1g3hHSbh3S+/xJflP59/jLnDm2lr6GjSDo2Sd+GY40uJihOwN96Tm1kKHzSPboacpJOo+mqkc+zoV/hgbbYWexZjx/KNCOnbHgHiCBa/8Cua3jAdc+cvxpcbfsb0jE/wfZa6ol3REXz3/vtYfbz60/tJfP9pDkZM6Ohk0Fyl6XBRl3oxHSB2b5O5ljMhflMSGndyM34Kvbar886Z/1iKuF4f4qdFz2D2Qw9h9vTBaCXsObjaJ7zdz7xtX5OuMSjc9VflrVXjQaxdnwzlPQ+e1kVrVU3auK+pMe6utMSYSU3x3eKf8L9P8nDdxE4yTNZ4MQ6u+tpVn9W6X8r3+WMObfeyLu6d/rHibdtd1tPtucCLY9oDxtQklEZ2cAhkiYg859uoceOn7JNVn86aNGmCyZMna3POnMSaV/6NdzckIfngHmxa9xN+3eeLnle3Q4OG3dG94FXcOScO2SUn8efaJZj374+Q1+cGXNFK/i0dEIjM/72AZceMOLnnO7z7xFysChyBG3p0RrfAlbjv4R+QZcnGgZ8XYu5/1qHp9Tei1c4FeOPHv/DnUaDrNTE4vuQlfLJjPxKKYnB1nzYVT4YhzS1Y8/4f6Dq+H5pVv8RQTcYv813nqVfPLg3029DFhG2/Z6Fh6kLMfPxtLFr4GVKHvoRXbo6Avy0dcQuexDsbs1CSn4Stny/AsqLRePAfHVH+2vmc7/+Ja+94BRuDRmPqkNYVQYDlwLt4M30MHhpeuaycq7RKRdj70260GD4AbZSVXNUlpBN6GN/FlHmbUWROxYaFz2BZ/Zl46dZo5K9dgAXf/YW/Ekzo1L87ir57HZ9s/xOJtm4Y3NWA7XptL9uPj+c+iw9WbcSBtCTs37IRq3/ZBWuX/ugcZsamN/6L3SUF2P/NK/j3oj9gyU7CXz6dMLBHT3TX2Sd6x/TW3c8i/3hdf2yvGYI+Ou2r56KenaK7oc3+xzHj/cMoPLkDHz23DCdbBeLI3hNoOXQKrjfr7PP1duDdp9/ErwdT8Ofu37D+p5+xpSgWA7o2rQgI7OM+HxuDq467/n4m90HJv00HlH7+f/ix3b8we1BLLb8c/X3Q+CeWzX0G73+zHvvTjmrt2wlzZ9m+ZuG6x1+v8G66+0Rgk67e9YtyLlBqW972EIe2+7U9/bqMLcPXby/H73syUb9vH9h+X4qfT8jxbnMc33y6Heh9DdqlLdQ/VvT6us9l3rV9wCSM9tHZz9ycC/SP6QJs+e/jeGVZHA6cOIYDcvzWbC1Cu/5d0dRtdGnBgWXvI+WaafhHh2BtGRFRTR8tXYrc3Fwo918Nyt0b9W6d/FFe06hc1NF+ydBR/pOPsbGxWB8Xp23unM1YjCJj5aUAn3r1Ub9e5ZnLVpKJxIQTMDWMRPuIxghwDOJEGbISDyPF3BSx7dog1L8yUZSeQmJ8KowNo+V2jezbWcpQVGqGISAYIfV8IUwlKCyzwC+wAYKrZFyK35++C98N+gDPubuv40meLurpNE3E49X7v8UN7zyC9o7V0tisFhjzUpGUUoh6YTGIaRlS9UqCKMXJ4zkIDJf5VTxbFODXf81Bxj/fxp1tq2fqKs1RKt6bsQR9Xn8Sl2r3wNzVxVZ8AvGJWfBr0xGxTbWw3GpEcYkJwj8I9QP91D5U3vXpF9QAQb6u224tK0KJufKPE4NvPQQHB9jLNObgaEIKyhrHokOrejCVlAFyHIK025NO9wmN0/3Mg7F12j7JZT0lU04SjqTb0DI2Bo0NxSgTgQgJ8ldvgzrf5wXMpcUoNWs3BeWB56/0l8OtV+fjrnG1D8o/3lY++Dx8nngd/2iuLXKzDzprX5BsX3mxLvtap88Up98vGhdtP926qG2zBiA4JAAGeX4qMwQj2MeIIpOPbGMZ1ro7Vlz0tddt19lO//hzfUwLU7Hclx3OuwEh8lisvtM4UfArHrpnF+5eMQc9HO+DExFVM3DQICQmJlYEjRWBY22Cxr+t3A1YvLolJo3vBMfn5bPPjKwj6/DGa5twxZ2j0K7j5ejU1IOT+dlizcWR7XuQUmpF3q5P8VnpFHz05JWo+WrJM+Fv1vYLXUkKdu+MR8Gptfj4956YOWsMeoUpAQnHgZwr2rYEy83/wH1XN9KWEBE5pxc0VrnIdcFoPAD3nPOAUWGDqdCAvqP7wie/BCbH12PVBWGB2WiC0WhDs5EvYvlZCxgVf7O2X+hsFhhLy1AceCXGDgxFman8rQ0cB3Ku/hV3M2Akolq5MK80EhEREZFXLq4rjURERER0RjFoJCIiIiK3ZNBY8915yjJnS4mIiIjoIqEEgw4BoQwa7R+9oS5jpFjh1LYVeH/RZ9hW+cm8Z15ZArbtzdJGgOhMEzi4aApmfXVCmz9Hqu3XpqQNWJ9Q7UuuNa7SiIiobthjxZpBYdUrjdpZXllisVpx6tQp+4ILWeFPmPPYd8jXZss17ng5msbvQOJZi+isOLT4GSw7ZnMyLFTOlvIrln4Xj2JG1t4xFqPknL6DuuZ+HRCcjk+eWY5kJ2PoKo2IiM49JfazWJw/cVS+plE5w6tnefup3lhmxJH4eHX6gmUrRWGRCTCXIjcrA2lpaThVZO8ov0bhCKsvYDNlI2H7Rmw5lAWzmlJOoOzEAWzesAn700srrxZaipGdmYXC0nwk7XC2naYwDu/8HIVJo1poC2Q18jOQmn4SBXIDW0EyDsafRFlFxjrlaYwnD2Hbpq3Ydzxb/bBthbkgExnZJbCYsxG//Tds/SvTIT87c048tv+2CXtTiyu/j9aDNjgrz851PU+XT9srcUXp+5gwYioW7co5ra+HvHj704qS7BNyf05H6E3zMW9AfZiqbahfnvdtUDnZr9HqRkwKW4V3N5doCxxoae9sLtYWEBFRXVJivzJjmTan/fkvH5QpNWjUFqnKp40mI+KPHNHmLky29E1YumQjMnK2YOk772Px4sVYujap8snQNxPLH3wE3xzPx7EvZ2HSq3th/3bcImx7cRzGP7cGqTlpWCenxzyzRf3+WWPiaiycMxM3jZ+KFYl5OP7VQ5j4wi5UvwGXt2klDne/Dj0qviAiH3+s+hBvz3kab703EzfcsxAbfngG9768U5apX57i2LIpuPWZn3EsJxO7PpyGQTe/jyTkYs9XCzH7gVsx/oZZWBmfieOrn8aNN76AnepztxVJn9yNMbO+xtGCLOz8750YMydObuW+Dc7LU7iup57klbMw4eabcXO1n9tf2ogiQ310Gv8Kvv9uHmLW/BOjbn0Bq1M9uZ158fYnTElY8/FiLFmyRP4swtxH3sRei5Ym6ZfnfRvK1dyvFcG4ZHgkdny5AzXDRnvazi93OkkjIqJzTYn9TEZ7tGOPCbXIUHmIio4Rymc1RkZFiYhI+RMRKcIjIkRMTKwYOnSYSElJERe0gh/Fv2Z/K/K02UplYvPTM8VHqTb7rO2IeOXeF8VBOWve/6q4Z94mUWC1CLPZLCzWQvH7s/eJBfvNckWT2PH8DPFugkXbLl688+Ab4i8tGzubOPjqKDHuo+p9axY7nhwkRr60XeRrSxSuyzOLPS9NFrNXHRSZBWXCYjsptvy4Q+QqGyp1vuEO8cVJZcYub+1jYurCo0JkLBczHlwlsrTlSj6H3rhHPPFbsZx21Qb98lzX0wWLURQXFYmiaj+l5iqdprLm7BFLpg4VI56Ms7fRpYu0P6tIF0seeFpsM2mzrtrndRvK6e3X0tG3xPARb4tj2mwVrtKIiOicUWI+JfZTYkAlFlRiQiU2jIyKVmNFQ3RMjFwN6gd6qxPQHuX/hg0b4rrrr8OLL7ygBplEREREdGH615w5+OH7H5Cfn69eWVQ/2Ns+oU77Nm7c+CltXWWZ8ludVij3tLOzstVPBe/UqRNCQ0O1FCIiIiK6EKSmpuL551/Aurh1yM7OVpeVfwuM+lAeOJZfaaz8CsFq01LDhqFo1aoVbp84Ee3bt0eHDh3QvHlzeyIRERERnVeUd0kfOXIE8fHxWLZ8OTIyMlCQX2BPdAwUtcBRXRIdE6tGh+VBYuUtauWhcrm/vx8a1G+AgHoBCKwXCF9fH5miruqCy0SXvN7S+yJr4dwXen41s05qe85dJLuedHGMZ91Qz8wXvjpo5kXSs5KXLb1oxuTcl2oPuM41F4XKJCVV+Vgdo7EMRpMJRUVFMJstal0rg0XHaW1eDRrlk0DVIFFdpD4q/+z/HZbbf1U86lHTveXlpnVRZm14XV+v6+p9I+uge86vMTnfXCTNJDfkEwHpU580z7VaFOn9pudPO+tiTNRbtedaLYp02UcySU0vDwTtC9RH+y3p8mWO6dq08g4Z5UlSiQcrg0YlV+VRTqj/q07XeNShbnOu1aJIV21xqU6aeRHUtTbqoMjaqJM+Iqoj6pPQxcDLZtaud+qkUK/UyX7gdffUoq5/szLVfNX/jo/yt+MyZb58ubKNmiinY2Jl0Kg8X8lf6hOX8r/GdLV05Z99ofpfj7ald7zc9GIp01u1qqu36qDI2hR6nlWXzpK6OFbsp2fSVQfdU7sivdz6PNoN6mSfrUWRXtf3QipTTZJryEd1vYpHx2X2aXVOmVYn5WNMbDt5blROj+qDPFPWnLb/r3ysftVRj5p+rtWiSK/rWyfNvAjqWht1UGRtCq2T6l4szqfOVc/MF766aWYdlFonRZ7jQmtR3Dmvq8LLImtV17oo0xUtCKxxK1pNs8/r3aZ2CBrludUeKdoDRvVRTqj/tUdtPfv65Wku2DPyilbSueVlkbWq6zlu5vlU19qok/2nNs6z6nrvomnoOSbP6BeD86yZ6hPuuXaOizzf2uh1fc+zMl1trKbIX2q9HALC6svUOWVanbQvsweNylOsei7XHrXgsEoQqS2zP8op9b/9UY+2hXe83LRWZXqrVs08x/Wtk+45v8bEW3XSTjp76mI41bMz6dGevs4fdVDdc95H51sbvdy0TvY9e+TmFZdbykS1Pcp/tQytdVpgqM4r0w7L1DllOrZdOy02tD/l2WfKH+WyijQ5of538qjHRZI7LvN1pRZlesvrutZC+TidU3VQpLfqYkzOp/6pK3UyLhcB7fROrtRBF9XJuJxHu4I9YDm3vB6TWlXVu43PVpH2ALD6o9Yz1YJE+6LyNAP+H45TG0J7lUbqAAAAAElFTkSuQmCC;" vertex="1" parent="1">
          <mxGeometry x="1295" y="230" width="653" height="524" as="geometry" />
        </mxCell>
      </root>
    </mxGraphModel>
  </diagram>
</mxfile>
